<svg version="1.1" id="Layer_1" xmlns="http://www.w3.org/2000/svg" xmlns:xlink="http://www.w3.org/1999/xlink" x="0px" y="0px"
	 width="100%" viewBox="0 0 664 158" enable-background="new 0 0 664 158" xml:space="preserve">
<path fill="#000000" opacity="1.000000" stroke="none" 
	d="
M525.000000,159.000000 
	C505.312439,159.000000 485.624878,159.000000 465.087341,158.894714 
	C463.573273,157.441299 463.194824,155.815567 462.198456,154.790283 
	C456.045898,148.459122 449.901764,142.103012 443.414001,136.125092 
	C441.590790,134.445160 438.630402,133.157578 436.177612,133.133759 
	C413.189240,132.910522 390.197784,133.007492 367.207245,132.998444 
	C356.470093,132.994217 350.005737,126.536072 350.001648,115.807907 
	C349.992554,91.984367 349.997864,68.160835 349.999115,44.337299 
	C349.999725,32.513668 356.447815,26.008076 368.204529,26.003325 
	C391.361664,25.993963 414.518829,25.999960 437.675964,26.000845 
	C447.759003,26.001228 452.532776,29.358494 456.100037,39.464081 
	C456.022095,64.249092 455.939331,88.570229 456.128998,112.889244 
	C456.145233,114.971359 457.972015,117.039360 459.096344,119.414520 
	C464.765472,125.252159 470.242981,130.844330 475.881287,136.269363 
	C476.770813,137.125259 478.661835,137.887939 479.596191,137.501205 
	C480.677185,137.053772 481.488800,135.375046 481.903503,134.067871 
	C482.288055,132.855621 482.000061,131.428497 482.000092,130.095993 
	C482.000946,95.282639 481.955383,60.469193 482.029327,25.655996 
	C482.050476,15.697078 477.952301,8.363727 469.190094,3.575549 
	C468.266663,3.070936 467.720947,1.875131 467.000000,0.999999 
	C500.354218,1.000000 533.708435,1.000000 567.767395,1.351048 
	C567.975281,2.105521 567.536072,2.737213 566.973328,2.879180 
	C550.453430,7.046561 536.762451,15.534696 525.729431,28.654108 
	C513.391968,43.324615 507.456177,60.258457 507.077728,79.142525 
	C506.721039,96.940399 507.001190,114.751038 507.001343,132.556061 
	C507.001465,145.097839 511.800201,152.142120 523.564453,157.058136 
	C524.202148,157.324600 524.528625,158.335587 525.000000,159.000000 
M388.569214,109.000603 
	C403.312714,109.000603 418.056213,109.000603 432.998962,109.000603 
	C432.998962,92.536125 433.020508,76.881836 432.989685,61.227665 
	C432.974701,53.613117 429.411652,50.033371 421.827576,50.011269 
	C409.331146,49.974861 396.834473,49.984303 384.337952,50.008137 
	C377.513123,50.021156 373.244232,53.537315 373.093933,60.213196 
	C372.805237,73.036476 372.595215,85.889832 373.182129,98.692688 
	C373.479645,105.182297 376.200531,109.718414 384.099976,109.014809 
	C385.257141,108.911736 386.431366,109.000565 388.569214,109.000603 
z"/>
<path fill="#000000" opacity="1.000000" stroke="none" 
	d="
M628.000000,159.000000 
	C596.645752,159.000000 565.291565,159.000000 533.302002,158.556091 
	C532.777405,156.294037 532.982971,154.475967 532.984436,152.657715 
	C533.005493,126.852280 532.852783,101.045654 533.058289,75.241837 
	C533.167358,61.547497 539.174011,49.872837 548.917114,40.933655 
	C561.790955,29.122028 577.333252,23.511984 595.101807,27.053545 
	C613.345398,30.689783 626.696228,40.926884 633.936340,58.152092 
	C636.794312,64.951561 638.137695,72.387611 640.303345,80.000000 
	C648.127686,80.000000 656.563843,80.000000 665.000000,80.000000 
	C665.000000,105.020897 665.000000,130.041794 664.789612,155.868286 
	C663.692078,156.171600 662.804871,155.669312 661.814941,155.115311 
	C661.712158,155.063583 661.507202,155.168198 661.308838,154.923431 
	C657.071594,150.727325 653.032776,146.775970 649.005310,142.737869 
	C649.016724,142.651123 648.859680,142.574005 648.656250,142.288177 
	C636.626953,130.153427 624.830322,118.274979 612.929626,106.501701 
	C611.754822,105.339493 609.959045,104.150101 608.424500,104.113762 
	C599.147278,103.894127 589.860474,103.930824 580.582642,104.137726 
	C579.756714,104.156143 578.971497,106.002525 578.206482,107.330360 
	C594.018799,123.456032 609.806641,139.236694 625.532471,155.078918 
	C626.594238,156.148499 627.188354,157.682175 628.000000,159.000000 
z"/>
<path fill="#E1232E" opacity="1.000000" stroke="none" 
	d="
M456.167236,38.999649 
	C452.532776,29.358494 447.759003,26.001228 437.675964,26.000845 
	C414.518829,25.999960 391.361664,25.993963 368.204529,26.003325 
	C356.447815,26.008076 349.999725,32.513668 349.999115,44.337299 
	C349.997864,68.160835 349.992554,91.984367 350.001648,115.807907 
	C350.005737,126.536072 356.470093,132.994217 367.207245,132.998444 
	C390.197784,133.007492 413.189240,132.910522 436.177612,133.133759 
	C438.630402,133.157578 441.590790,134.445160 443.414001,136.125092 
	C449.901764,142.103012 456.045898,148.459122 462.198456,154.790283 
	C463.194824,155.815567 463.573273,157.441299 464.618683,158.894714 
	C424.312439,159.000000 383.624878,159.000000 342.790222,158.708221 
	C342.312408,158.044510 342.040741,157.433884 341.642426,157.335373 
	C330.334473,154.539307 323.807953,142.096573 323.899506,130.788010 
	C324.179474,96.203804 323.979584,61.615860 324.014374,27.029423 
	C324.024933,16.498030 328.485199,8.438456 337.668335,3.067628 
	C338.299438,2.698516 338.564636,1.703781 339.000000,1.000001 
	C381.354218,1.000000 423.708466,1.000000 466.531342,0.999999 
	C467.720947,1.875131 468.266663,3.070936 469.190094,3.575549 
	C477.952301,8.363727 482.050476,15.697078 482.029327,25.655996 
	C481.955383,60.469193 482.000946,95.282639 482.000092,130.095993 
	C482.000061,131.428497 482.288055,132.855621 481.903503,134.067871 
	C481.488800,135.375046 480.677185,137.053772 479.596191,137.501205 
	C478.661835,137.887939 476.770813,137.125259 475.881287,136.269363 
	C470.242981,130.844330 464.765472,125.252159 459.103333,118.938644 
	C458.980011,94.425316 459.077484,70.687698 458.872223,46.952702 
	C458.849243,44.294086 457.110352,41.650311 456.167236,38.999649 
z"/>
<path fill="#E1232E" opacity="1.000000" stroke="none" 
	d="
M297.000000,159.000000 
	C287.645782,159.000000 278.291534,159.000000 268.468933,158.531342 
	C268.000549,135.494537 268.000549,112.926376 268.000549,90.372818 
	C240.983704,90.372818 214.629608,90.372818 188.000000,90.372818 
	C188.000000,113.495949 188.000000,136.247971 188.000000,159.000000 
	C178.645767,159.000000 169.291550,159.000000 159.634048,158.555695 
	C159.220337,156.129013 159.014114,154.146652 159.013428,152.164246 
	C158.995850,101.776161 158.999802,51.388081 159.000000,1.000000 
	C168.354233,1.000000 177.708450,1.000000 187.530807,1.468657 
	C187.998932,23.165520 187.998932,44.393726 187.998932,65.653351 
	C214.984695,65.653351 241.328674,65.653351 268.000000,65.653351 
	C268.000000,43.871616 268.000000,22.435808 268.000000,1.000000 
	C277.354218,1.000000 286.708466,1.000000 296.530823,1.468657 
	C296.999329,54.291542 296.999664,106.645775 297.000000,159.000000 
z"/>
<path fill="#E1232E" opacity="1.000000" stroke="none" 
	d="
M97.000000,1.000001 
	C107.687561,1.000000 118.375122,1.000000 129.424484,1.323266 
	C128.344910,3.443590 127.054924,5.391359 125.438881,7.014513 
	C108.329514,24.199144 91.129349,41.293655 74.079727,58.537098 
	C72.318649,60.318195 71.369179,62.901783 69.904427,65.413628 
	C66.171494,69.169868 62.577263,72.625488 59.189384,75.882713 
	C84.279579,102.644501 109.055183,129.070740 133.239471,155.565414 
	C123.432091,155.755905 114.216042,155.877960 104.676727,155.893158 
	C102.558380,154.346909 100.613976,153.057678 98.991600,151.444565 
	C84.757133,137.291428 70.640755,123.018829 56.326977,108.946815 
	C53.912174,106.572800 50.719402,104.990112 47.585480,102.903259 
	C41.975174,97.150414 36.665470,91.536125 31.355766,85.921837 
	C30.903845,86.219757 30.451921,86.517677 30.000000,86.815598 
	C30.000000,110.877060 30.000000,134.938538 30.000000,159.000000 
	C20.352949,159.000000 10.705897,159.000000 1.059305,159.000000 
	C1.059764,106.333305 1.059764,53.666630 1.059764,1.000000 
	C10.433913,1.000000 19.748299,1.000000 29.531357,1.468657 
	C30.000031,24.409958 30.000031,46.882603 30.000031,69.355247 
	C30.430799,69.508057 30.861568,69.660873 31.292337,69.813690 
	C32.477383,68.426109 33.583794,66.961311 34.859230,65.662498 
	C54.981750,45.171200 75.134644,24.709698 95.234299,4.196022 
	C96.055138,3.358271 96.421761,2.075459 97.000000,1.000001 
z"/>
<path fill="#000000" opacity="1.000000" stroke="none" 
	d="
M133.830795,155.496979 
	C109.055183,129.070740 84.279579,102.644501 59.189384,75.882713 
	C62.577263,72.625488 66.171494,69.169868 70.209000,65.269119 
	C87.416985,48.067192 104.198959,31.327604 120.934807,14.542016 
	C125.362869,10.100792 129.648804,5.517860 134.000000,0.999999 
	C142.020905,1.000000 150.041809,1.000000 158.531357,1.000000 
	C158.999802,51.388081 158.995850,101.776161 159.013428,152.164246 
	C159.014114,154.146652 159.220337,156.129013 159.165390,158.555695 
	C151.645752,159.000000 144.291504,159.000000 136.464188,158.713043 
	C135.271011,157.449722 134.550903,156.473358 133.830795,155.496979 
z"/>
<path fill="#E1232E" opacity="1.000000" stroke="none" 
	d="
M665.000000,79.536819 
	C656.563843,80.000000 648.127686,80.000000 640.303345,80.000000 
	C638.137695,72.387611 636.794312,64.951561 633.936340,58.152092 
	C626.696228,40.926884 613.345398,30.689783 595.101807,27.053545 
	C577.333252,23.511984 561.790955,29.122028 548.917114,40.933655 
	C539.174011,49.872837 533.167358,61.547497 533.058289,75.241837 
	C532.852783,101.045654 533.005493,126.852280 532.984436,152.657715 
	C532.982971,154.475967 532.777405,156.294037 532.833313,158.556091 
	C530.629456,159.000000 528.258850,159.000000 525.444153,159.000000 
	C524.528625,158.335587 524.202148,157.324600 523.564453,157.058136 
	C511.800201,152.142120 507.001465,145.097839 507.001343,132.556061 
	C507.001190,114.751038 506.721039,96.940399 507.077728,79.142525 
	C507.456177,60.258457 513.391968,43.324615 525.729431,28.654108 
	C536.762451,15.534696 550.453430,7.046561 566.973328,2.879180 
	C567.536072,2.737213 567.975281,2.105521 568.236084,1.351048 
	C579.354248,1.000000 590.708435,1.000000 602.303467,1.357112 
	C605.283386,2.592912 608.076721,3.332241 610.753418,4.371777 
	C639.013062,15.346701 657.136536,35.044136 663.084412,65.237694 
	C663.219666,65.924271 664.339478,66.416901 665.000000,67.000000 
	C665.000000,71.024544 665.000000,75.049088 665.000000,79.536819 
z"/>
<path fill="#000000" opacity="1.000000" stroke="none" 
	d="
M188.468658,159.000000 
	C188.000000,136.247971 188.000000,113.495949 188.000000,90.372818 
	C214.629608,90.372818 240.983704,90.372818 268.000549,90.372818 
	C268.000549,112.926376 268.000549,135.494537 268.000275,158.531342 
	C241.645767,159.000000 215.291550,159.000000 188.468658,159.000000 
z"/>
<path fill="#000000" opacity="1.000000" stroke="none" 
	d="
M267.531342,1.000000 
	C268.000000,22.435808 268.000000,43.871616 268.000000,65.653351 
	C241.328674,65.653351 214.984695,65.653351 187.998932,65.653351 
	C187.998932,44.393726 187.998932,23.165520 187.999466,1.468657 
	C214.354233,1.000000 240.708450,1.000000 267.531342,1.000000 
z"/>
<path fill="#000000" opacity="1.000000" stroke="none" 
	d="
M297.468658,159.000000 
	C296.999664,106.645775 296.999329,54.291542 296.999512,1.468657 
	C310.687561,1.000000 324.375122,1.000000 338.531342,1.000001 
	C338.564636,1.703781 338.299438,2.698516 337.668335,3.067628 
	C328.485199,8.438456 324.024933,16.498030 324.014374,27.029423 
	C323.979584,61.615860 324.179474,96.203804 323.899506,130.788010 
	C323.807953,142.096573 330.334473,154.539307 341.642426,157.335373 
	C342.040741,157.433884 342.312408,158.044510 342.321533,158.708221 
	C327.312439,159.000000 312.624878,159.000000 297.468658,159.000000 
z"/>
<path fill="#000000" opacity="1.000000" stroke="none" 
	d="
M30.468658,159.000000 
	C30.000000,134.938538 30.000000,110.877060 30.000000,86.815598 
	C30.451921,86.517677 30.903845,86.219757 31.355766,85.921837 
	C36.665470,91.536125 41.975174,97.150414 47.641598,103.249939 
	C49.128490,105.119476 50.149731,106.612419 51.405388,107.871590 
	C67.110558,123.620811 82.864395,139.321533 98.547325,155.092789 
	C99.605003,156.156433 100.193367,157.686737 101.000000,159.000000 
	C77.645775,159.000000 54.291542,159.000000 30.468658,159.000000 
z"/>
<path fill="#000000" opacity="1.000000" stroke="none" 
	d="
M96.531342,1.000001 
	C96.421761,2.075459 96.055138,3.358271 95.234299,4.196022 
	C75.134644,24.709698 54.981750,45.171200 34.859230,65.662498 
	C33.583794,66.961311 32.477383,68.426109 31.292337,69.813690 
	C30.861568,69.660873 30.430799,69.508057 30.000031,69.355247 
	C30.000031,46.882603 30.000031,24.409958 30.000015,1.468657 
	C52.020893,1.000000 74.041786,1.000000 96.531342,1.000001 
z"/>
<path fill="#E1232E" opacity="1.000000" stroke="none" 
	d="
M648.859680,142.574005 
	C648.859680,142.574005 649.016724,142.651123 649.091675,143.090454 
	C651.903259,148.869171 655.035706,153.788971 661.507202,155.168198 
	C661.507202,155.168198 661.712158,155.063583 661.664124,155.585236 
	C661.410767,157.071274 661.205383,158.035629 661.000000,159.000000 
	C657.969421,159.000000 654.938782,159.000000 651.303589,158.660339 
	C648.991882,157.554871 647.338623,156.333649 645.565674,156.123795 
	C642.455200,155.755661 639.253357,155.790024 636.122559,156.050079 
	C631.426514,156.440109 627.994507,154.688980 624.716553,151.335724 
	C611.956421,138.282715 598.934448,125.486084 586.085632,112.518959 
	C584.491150,110.909798 583.350830,108.850632 582.468628,107.000000 
	C590.250427,107.003418 597.581482,106.714050 604.867249,107.162254 
	C607.574341,107.328789 610.748962,108.603081 612.728210,110.433960 
	C622.966187,119.904510 632.831665,129.776581 642.973816,139.353165 
	C644.546936,140.838547 646.878723,141.520523 648.859680,142.574005 
z"/>
<path fill="#000000" opacity="1.000000" stroke="none" 
	d="
M665.000000,66.531342 
	C664.339478,66.416901 663.219666,65.924271 663.084412,65.237694 
	C657.136536,35.044136 639.013062,15.346701 610.753418,4.371777 
	C608.076721,3.332241 605.283386,2.592912 602.772095,1.357112 
	C623.595764,1.000000 644.191589,1.000000 665.000000,1.000000 
	C665.000000,22.687098 665.000000,44.374889 665.000000,66.531342 
z"/>
<path fill="#E1222E" opacity="1.000000" stroke="none" 
	d="
M101.399994,159.000000 
	C100.193367,157.686737 99.605003,156.156433 98.547325,155.092789 
	C82.864395,139.321533 67.110558,123.620811 51.405388,107.871590 
	C50.149731,106.612419 49.128490,105.119476 47.942200,103.388489 
	C50.719402,104.990112 53.912174,106.572800 56.326977,108.946815 
	C70.640755,123.018829 84.757133,137.291428 98.991600,151.444565 
	C100.613976,153.057678 102.558380,154.346909 104.609520,156.139374 
	C104.910385,157.328293 104.955193,158.164154 105.000000,159.000000 
	C103.933327,159.000000 102.866661,159.000000 101.399994,159.000000 
z"/>
<path fill="#E1232E" opacity="1.000000" stroke="none" 
	d="
M582.000000,107.000000 
	C583.350830,108.850632 584.491150,110.909798 586.085632,112.518959 
	C598.934448,125.486084 611.956421,138.282715 624.716553,151.335724 
	C627.994507,154.688980 631.426514,156.440109 636.122559,156.050079 
	C639.253357,155.790024 642.455200,155.755661 645.565674,156.123795 
	C647.338623,156.333649 648.991882,157.554871 650.849487,158.660339 
	C643.645752,159.000000 636.291504,159.000000 628.468628,159.000000 
	C627.188354,157.682175 626.594238,156.148499 625.532471,155.078918 
	C609.806641,139.236694 594.018799,123.456032 578.589722,107.330376 
	C579.955872,106.999977 580.977966,106.999985 582.000000,107.000000 
z"/>
<path fill="#E1232E" opacity="1.000000" stroke="none" 
	d="
M133.600006,0.999999 
	C129.648804,5.517860 125.362869,10.100792 120.934807,14.542016 
	C104.198959,31.327604 87.416985,48.067192 70.347702,64.968506 
	C71.369179,62.901783 72.318649,60.318195 74.079727,58.537098 
	C91.129349,41.293655 108.329514,24.199144 125.438881,7.014513 
	C127.054924,5.391359 128.344910,3.443590 129.893143,1.323266 
	C131.066666,1.000000 132.133347,1.000000 133.600006,0.999999 
z"/>
<path fill="#E1232E" opacity="1.000000" stroke="none" 
	d="
M105.468658,159.000000 
	C104.955193,158.164154 104.910385,157.328293 104.932785,156.246216 
	C114.216042,155.877960 123.432091,155.755905 133.239471,155.565414 
	C134.550903,156.473358 135.271011,157.449722 135.995560,158.713043 
	C125.979103,159.000000 115.958214,159.000000 105.468658,159.000000 
z"/>
<path fill="#E0222F" opacity="1.000000" stroke="none" 
	d="
M661.500000,159.000000 
	C661.205383,158.035629 661.410767,157.071274 661.766907,155.636963 
	C662.804871,155.669312 663.692078,156.171600 664.789612,156.336945 
	C665.498779,158.498810 664.498779,159.498810 661.500000,159.000000 
z"/>
<path fill="#E1232E" opacity="1.000000" stroke="none" 
	d="
M388.083466,109.000603 
	C386.431366,109.000565 385.257141,108.911736 384.099976,109.014809 
	C376.200531,109.718414 373.479645,105.182297 373.182129,98.692688 
	C372.595215,85.889832 372.805237,73.036476 373.093933,60.213196 
	C373.244232,53.537315 377.513123,50.021156 384.337952,50.008137 
	C396.834473,49.984303 409.331146,49.974861 421.827576,50.011269 
	C429.411652,50.033371 432.974701,53.613117 432.989685,61.227665 
	C433.020508,76.881836 432.998962,92.536125 432.998962,109.000603 
	C418.056213,109.000603 403.312714,109.000603 388.083466,109.000603 
z"/>
<path fill="#E1222E" opacity="1.000000" stroke="none" 
	d="
M456.100037,39.464085 
	C457.110352,41.650311 458.849243,44.294086 458.872223,46.952702 
	C459.077484,70.687698 458.980011,94.425316 458.964722,118.638046 
	C457.972015,117.039360 456.145233,114.971359 456.128998,112.889244 
	C455.939331,88.570229 456.022095,64.249092 456.100037,39.464085 
z"/>
<path fill="#E1232E" opacity="1.000000" stroke="none" 
	d="
M582.468628,107.000000 
	C580.977966,106.999985 579.955872,106.999977 578.550598,106.999947 
	C578.971497,106.002525 579.756714,104.156143 580.582642,104.137726 
	C589.860474,103.930824 599.147278,103.894127 608.424500,104.113762 
	C609.959045,104.150101 611.754822,105.339493 612.929626,106.501701 
	C624.830322,118.274979 636.626953,130.153427 648.656250,142.288177 
	C646.878723,141.520523 644.546936,140.838547 642.973816,139.353165 
	C632.831665,129.776581 622.966187,119.904510 612.728210,110.433960 
	C610.748962,108.603081 607.574341,107.328789 604.867249,107.162254 
	C597.581482,106.714050 590.250427,107.003418 582.468628,107.000000 
z"/>
<path fill="#E1222E" opacity="1.000000" stroke="none" 
	d="
M661.308838,154.923431 
	C655.035706,153.788971 651.903259,148.869171 649.080200,143.177216 
	C653.032776,146.775970 657.071594,150.727325 661.308838,154.923431 
z"/>
</svg>