<svg id="svg" version="1.1" xmlns="http://www.w3.org/2000/svg" xmlns:xlink="http://www.w3.org/1999/xlink" width="400" height="400" viewBox="0, 0, 400,400"><g id="svgg"><path id="path0" d="M197.346 80.264 C 196.557 81.989,194.867 85.650,193.591 88.400 C 191.611 92.669,186.155 104.793,183.511 110.800 C 183.075 111.790,182.304 113.500,181.797 114.600 C 181.290 115.700,180.432 117.590,179.889 118.800 C 179.346 120.010,177.276 124.600,175.288 129.000 C 173.301 133.400,171.556 137.403,171.411 137.896 C 171.217 138.560,171.987 140.405,174.374 144.996 C 176.148 148.408,179.063 154.035,180.852 157.500 C 182.641 160.965,184.777 165.060,185.600 166.600 C 186.423 168.140,188.910 172.910,191.127 177.200 C 197.428 189.390,198.566 191.400,199.162 191.400 C 199.766 191.400,201.301 188.750,206.504 178.725 C 215.723 160.964,221.381 150.044,224.200 144.578 L 227.306 138.556 225.400 134.178 C 222.656 127.876,218.198 117.996,216.158 113.693 C 215.191 111.654,214.400 109.901,214.400 109.798 C 214.400 109.636,211.665 103.532,207.143 93.600 C 198.499 74.616,199.381 75.817,197.346 80.264 M170.800 101.200 C 170.800 101.640,170.980 102.000,171.200 102.000 C 171.420 102.000,171.600 101.640,171.600 101.200 C 171.600 100.760,171.420 100.400,171.200 100.400 C 170.980 100.400,170.800 100.760,170.800 101.200 M226.800 101.200 C 226.800 101.640,226.942 102.000,227.115 102.000 C 227.288 102.000,227.457 101.640,227.490 101.200 C 227.523 100.760,227.381 100.400,227.175 100.400 C 226.969 100.400,226.800 100.760,226.800 101.200 M169.412 104.117 C 169.241 104.512,169.213 104.947,169.351 105.084 C 169.757 105.490,170.084 104.920,169.897 104.131 C 169.732 103.433,169.710 103.432,169.412 104.117 M228.409 104.329 C 228.400 104.886,229.529 106.204,229.792 105.942 C 229.876 105.857,229.602 105.341,229.182 104.794 C 228.761 104.247,228.414 104.038,228.409 104.329 M235.402 158.002 C 235.802 158.444,236.211 158.722,236.312 158.621 C 236.528 158.405,235.388 157.200,234.967 157.200 C 234.807 157.200,235.003 157.561,235.402 158.002 M143.260 159.442 C 142.531 160.266,143.000 160.657,143.781 159.876 C 144.121 159.536,144.400 159.154,144.400 159.029 C 144.400 158.609,143.806 158.824,143.260 159.442 M236.400 160.138 C 236.400 160.434,236.760 161.002,237.200 161.400 C 237.654 161.811,238.000 161.924,238.000 161.662 C 238.000 161.408,237.820 161.200,237.600 161.200 C 237.380 161.200,237.200 160.840,237.200 160.400 C 237.200 159.960,237.020 159.600,236.800 159.600 C 236.580 159.600,236.400 159.842,236.400 160.138 M174.330 161.625 C 174.194 161.968,174.420 162.688,174.833 163.225 C 175.245 163.761,175.586 164.011,175.591 163.780 C 175.596 163.549,175.437 163.189,175.239 162.980 C 175.040 162.771,174.810 162.240,174.727 161.800 C 174.605 161.152,174.529 161.119,174.330 161.625 M256.400 163.400 C 256.400 163.730,256.580 164.000,256.800 164.000 C 257.020 164.000,257.200 163.730,257.200 163.400 C 257.200 163.070,257.020 162.800,256.800 162.800 C 256.580 162.800,256.400 163.070,256.400 163.400 M158.800 165.120 C 158.800 165.604,158.620 166.000,158.400 166.000 C 158.180 166.000,158.000 166.220,158.000 166.489 C 158.000 166.758,158.398 166.580,158.884 166.093 C 159.577 165.401,159.664 165.104,159.284 164.724 C 158.905 164.345,158.800 164.431,158.800 165.120 M176.674 166.289 C 176.503 166.561,176.676 167.249,177.065 167.843 C 177.492 168.494,177.829 168.714,177.931 168.408 C 178.022 168.133,177.916 167.793,177.695 167.654 C 177.474 167.514,177.222 167.040,177.137 166.600 C 177.029 166.046,176.887 165.951,176.674 166.289 M258.800 167.938 C 258.800 168.192,258.980 168.400,259.200 168.400 C 259.420 168.400,259.600 168.670,259.600 169.000 C 259.600 169.330,259.780 169.600,260.000 169.600 C 260.641 169.600,260.464 168.982,259.600 168.200 C 259.146 167.789,258.800 167.676,258.800 167.938 M245.200 176.976 C 245.200 177.293,245.380 177.664,245.600 177.800 C 245.820 177.936,246.000 177.677,246.000 177.224 C 246.000 176.771,245.820 176.400,245.600 176.400 C 245.380 176.400,245.200 176.659,245.200 176.976 M151.092 179.842 C 150.931 180.002,150.800 180.409,150.800 180.747 C 150.800 181.197,150.918 181.242,151.245 180.915 C 151.490 180.670,151.621 180.263,151.537 180.010 C 151.452 179.757,151.252 179.681,151.092 179.842 M288.033 217.700 C 288.305 218.305,288.680 218.800,288.864 218.800 C 289.399 218.800,289.260 218.431,288.369 217.483 L 287.537 216.600 288.033 217.700 M107.296 221.195 C 106.544 222.398,106.702 222.656,107.600 221.692 C 108.447 220.783,108.594 220.400,108.096 220.400 C 107.929 220.400,107.569 220.758,107.296 221.195 M274.000 225.739 C 274.000 226.585,275.399 228.480,275.533 227.815 C 275.620 227.384,275.491 226.964,275.246 226.882 C 275.001 226.800,274.800 226.478,274.800 226.167 C 274.800 225.855,274.620 225.600,274.400 225.600 C 274.180 225.600,274.000 225.662,274.000 225.739 M294.000 227.029 C 294.000 227.327,295.075 228.400,295.375 228.400 C 295.502 228.400,295.382 228.040,295.107 227.600 C 294.638 226.849,294.000 226.520,294.000 227.029 M197.883 228.812 C 197.511 229.245,197.364 229.600,197.555 229.600 C 197.995 229.600,198.974 228.441,198.736 228.202 C 198.638 228.104,198.254 228.379,197.883 228.812 M196.860 230.642 C 196.562 230.978,196.399 231.332,196.495 231.429 C 196.592 231.526,196.998 231.244,197.398 230.802 C 197.797 230.361,197.961 230.007,197.762 230.015 C 197.563 230.024,197.157 230.305,196.860 230.642 M296.400 230.967 C 296.400 231.388,297.605 232.528,297.821 232.312 C 297.922 232.211,297.644 231.802,297.202 231.402 C 296.761 231.003,296.400 230.807,296.400 230.967 M176.812 233.184 C 176.488 233.389,176.344 233.678,176.493 233.826 C 176.641 233.974,177.053 233.804,177.410 233.448 C 178.113 232.744,177.757 232.587,176.812 233.184 M298.000 233.429 C 298.000 233.727,299.075 234.800,299.375 234.800 C 299.502 234.800,299.382 234.440,299.107 234.000 C 298.638 233.249,298.000 232.920,298.000 233.429 M118.606 234.688 L 117.904 235.800 118.830 234.911 C 119.339 234.422,119.655 233.922,119.532 233.799 C 119.409 233.676,118.992 234.076,118.606 234.688 M175.394 235.607 C 174.830 236.229,174.769 236.529,175.129 236.889 C 175.490 237.250,175.600 237.162,175.600 236.513 C 175.600 236.048,175.825 235.586,176.100 235.488 C 176.375 235.390,176.494 235.194,176.364 235.052 C 176.235 234.911,175.798 235.160,175.394 235.607 M279.600 235.029 C 279.600 235.327,280.675 236.400,280.975 236.400 C 281.102 236.400,280.982 236.040,280.707 235.600 C 280.238 234.849,279.600 234.520,279.600 235.029 M205.200 238.538 C 205.200 238.834,205.560 239.402,206.000 239.800 C 206.454 240.211,206.800 240.324,206.800 240.062 C 206.800 239.808,206.620 239.600,206.400 239.600 C 206.180 239.600,206.000 239.240,206.000 238.800 C 206.000 238.360,205.820 238.000,205.600 238.000 C 205.380 238.000,205.200 238.242,205.200 238.538 M225.200 240.689 C 225.200 241.192,226.343 242.190,226.612 241.921 C 226.718 241.815,226.444 241.402,226.002 241.002 C 225.561 240.603,225.200 240.462,225.200 240.689 M92.093 244.400 C 91.818 244.840,91.698 245.200,91.825 245.200 C 92.125 245.200,93.200 244.127,93.200 243.829 C 93.200 243.320,92.562 243.649,92.093 244.400 M227.600 244.842 C 227.600 245.153,227.960 245.632,228.400 245.907 C 228.840 246.182,229.200 246.253,229.200 246.065 C 229.200 245.878,228.840 245.398,228.400 245.000 C 227.785 244.443,227.600 244.407,227.600 244.842 M89.100 248.957 C 88.369 249.512,88.184 250.000,88.704 250.000 C 88.871 250.000,89.232 249.640,89.507 249.200 C 90.089 248.268,90.044 248.240,89.100 248.957 M290.493 251.600 C 290.962 252.351,291.600 252.680,291.600 252.171 C 291.600 251.873,290.525 250.800,290.225 250.800 C 290.098 250.800,290.218 251.160,290.493 251.600 M310.000 251.100 C 310.000 251.269,310.360 251.632,310.800 251.907 C 311.240 252.182,311.600 252.269,311.600 252.100 C 311.600 251.931,311.240 251.568,310.800 251.293 C 310.360 251.018,310.000 250.931,310.000 251.100 M86.598 252.402 C 86.198 252.844,85.966 253.299,86.082 253.415 C 86.197 253.530,86.590 253.169,86.955 252.612 C 87.752 251.396,87.593 251.302,86.598 252.402 M213.200 252.629 C 213.200 252.754,213.470 253.127,213.800 253.457 C 214.451 254.108,214.533 254.011,214.157 253.033 C 213.929 252.438,213.200 252.130,213.200 252.629 M296.093 259.600 C 296.562 260.351,297.200 260.680,297.200 260.171 C 297.200 259.873,296.125 258.800,295.825 258.800 C 295.698 258.800,295.818 259.160,296.093 259.600 M317.045 260.612 C 317.410 261.169,317.786 261.547,317.882 261.451 C 318.119 261.214,317.084 259.600,316.695 259.600 C 316.522 259.600,316.680 260.056,317.045 260.612 M77.677 265.226 C 77.109 266.135,77.412 266.245,78.232 265.426 C 78.548 265.110,78.661 264.761,78.483 264.651 C 78.305 264.542,77.943 264.800,77.677 265.226 M320.400 265.538 C 320.400 265.792,320.580 266.000,320.800 266.000 C 321.020 266.000,321.200 266.270,321.200 266.600 C 321.200 266.930,321.380 267.200,321.600 267.200 C 322.241 267.200,322.064 266.582,321.200 265.800 C 320.746 265.389,320.400 265.276,320.400 265.538 M75.950 267.000 C 75.922 267.110,75.877 267.369,75.850 267.576 C 75.823 267.784,75.217 268.523,74.504 269.220 C 73.791 269.918,73.287 270.617,73.384 270.774 C 73.481 270.932,72.940 271.647,72.181 272.363 C 71.421 273.079,70.800 273.838,70.800 274.049 C 70.800 274.260,71.520 273.698,72.400 272.800 C 73.280 271.902,74.000 270.993,74.000 270.780 C 74.000 270.567,74.540 269.828,75.200 269.137 C 75.860 268.446,76.400 267.638,76.400 267.341 C 76.400 266.830,76.057 266.570,75.950 267.000 M306.000 273.600 C 306.000 273.820,306.159 274.000,306.353 274.000 C 306.548 274.000,306.837 274.405,306.996 274.900 C 307.240 275.662,307.314 275.692,307.472 275.101 C 307.574 274.716,307.388 274.131,307.058 273.801 C 306.360 273.103,306.000 273.035,306.000 273.600 M68.863 276.447 C 68.446 277.116,68.438 277.390,68.826 277.747 C 69.193 278.086,69.251 278.082,69.055 277.732 C 68.911 277.475,69.064 276.993,69.396 276.661 C 70.056 276.001,70.170 275.600,69.696 275.600 C 69.529 275.600,69.154 275.981,68.863 276.447 M148.537 277.917 C 148.411 278.403,148.148 278.800,147.953 278.800 C 147.759 278.800,147.600 278.980,147.600 279.200 C 147.600 279.939,148.260 279.609,148.800 278.601 C 149.094 278.051,149.207 277.474,149.051 277.318 C 148.896 277.162,148.664 277.432,148.537 277.917 M311.445 280.612 C 311.810 281.169,312.186 281.547,312.282 281.451 C 312.519 281.214,311.484 279.600,311.095 279.600 C 310.922 279.600,311.080 280.056,311.445 280.612 M144.591 283.400 C 144.408 283.840,144.070 284.325,143.841 284.478 C 143.611 284.631,143.544 284.878,143.693 285.026 C 144.132 285.466,145.273 284.058,145.091 283.299 C 144.941 282.673,144.889 282.683,144.591 283.400 M233.200 283.767 C 233.200 284.188,234.405 285.328,234.621 285.112 C 234.722 285.011,234.444 284.602,234.002 284.202 C 233.561 283.803,233.200 283.607,233.200 283.767 M335.287 285.191 C 335.791 285.997,336.400 286.274,336.400 285.696 C 336.400 285.529,336.036 285.165,335.591 284.887 C 334.841 284.419,334.819 284.441,335.287 285.191 M318.000 289.429 C 318.000 289.853,319.236 290.897,319.467 290.667 C 319.592 290.541,319.417 290.160,319.076 289.819 C 318.441 289.184,318.000 289.024,318.000 289.429 M158.000 293.400 C 158.000 293.730,157.865 294.006,157.700 294.013 C 157.359 294.027,155.847 296.000,156.178 296.000 C 156.522 296.000,158.800 293.516,158.800 293.141 C 158.800 292.953,158.620 292.800,158.400 292.800 C 158.180 292.800,158.000 293.070,158.000 293.400 M324.202 297.202 C 324.602 297.644,325.011 297.922,325.112 297.821 C 325.328 297.605,324.188 296.400,323.767 296.400 C 323.607 296.400,323.803 296.761,324.202 297.202 M244.400 299.486 C 244.400 299.979,246.451 302.082,246.695 301.838 C 246.791 301.743,246.313 301.083,245.634 300.373 C 244.955 299.663,244.400 299.263,244.400 299.486 M150.645 303.388 C 150.280 303.944,150.122 304.400,150.295 304.400 C 150.684 304.400,151.719 302.786,151.482 302.549 C 151.386 302.453,151.010 302.831,150.645 303.388 M68.905 317.887 C 69.514 317.979,70.414 317.977,70.905 317.882 C 71.397 317.787,70.900 317.711,69.800 317.714 C 68.700 317.717,68.297 317.795,68.905 317.887 M90.900 317.894 C 91.945 317.976,93.655 317.976,94.700 317.894 C 95.745 317.812,94.890 317.744,92.800 317.744 C 90.710 317.744,89.855 317.812,90.900 317.894 M111.100 317.898 C 113.135 317.971,116.465 317.971,118.500 317.898 C 120.535 317.825,118.870 317.766,114.800 317.766 C 110.730 317.766,109.065 317.825,111.100 317.898 M129.300 317.887 C 129.905 317.978,130.895 317.978,131.500 317.887 C 132.105 317.795,131.610 317.720,130.400 317.720 C 129.190 317.720,128.695 317.795,129.300 317.887 M271.700 317.887 C 272.305 317.978,273.295 317.978,273.900 317.887 C 274.505 317.795,274.010 317.720,272.800 317.720 C 271.590 317.720,271.095 317.795,271.700 317.887 M278.900 317.887 C 279.505 317.978,280.495 317.978,281.100 317.887 C 281.705 317.795,281.210 317.720,280.000 317.720 C 278.790 317.720,278.295 317.795,278.900 317.887 M315.900 317.895 C 317.055 317.976,318.945 317.976,320.100 317.895 C 321.255 317.814,320.310 317.748,318.000 317.748 C 315.690 317.748,314.745 317.814,315.900 317.895 M324.300 317.882 C 324.795 317.978,325.605 317.978,326.100 317.882 C 326.595 317.787,326.190 317.709,325.200 317.709 C 324.210 317.709,323.805 317.787,324.300 317.882 " stroke="none" fill="#eb9c06" fill-rule="evenodd"></path><path id="path1" d="M194.200 61.600 C 194.064 61.820,193.603 62.000,193.176 62.000 C 192.749 62.000,192.400 62.180,192.400 62.400 C 192.400 62.620,192.127 62.800,191.793 62.800 C 190.292 62.800,186.233 67.738,184.062 72.203 C 182.886 74.621,181.587 77.282,181.174 78.117 C 180.761 78.951,180.598 79.525,180.811 79.393 C 181.511 78.961,181.219 79.727,180.300 80.739 C 179.805 81.283,179.670 81.581,180.000 81.400 C 180.330 81.219,180.150 81.579,179.600 82.200 C 179.050 82.821,178.870 83.175,179.200 82.988 C 179.682 82.714,179.710 82.760,179.343 83.223 C 178.095 84.797,177.165 86.931,177.607 87.204 C 177.898 87.384,177.725 87.593,177.134 87.771 C 176.531 87.954,176.387 88.130,176.728 88.270 C 177.112 88.426,177.025 88.647,176.409 89.079 C 175.814 89.496,175.680 89.815,175.961 90.153 C 176.241 90.491,176.111 90.788,175.521 91.157 C 174.842 91.580,174.789 91.748,175.241 92.034 C 175.640 92.287,175.657 92.390,175.300 92.394 C 175.025 92.397,174.800 92.760,174.800 93.200 C 174.800 93.640,174.575 94.003,174.300 94.006 C 173.967 94.010,174.000 94.142,174.400 94.400 C 174.918 94.735,174.909 94.789,174.329 94.794 C 173.960 94.797,173.388 95.343,173.057 96.007 C 172.725 96.670,172.622 97.110,172.827 96.983 C 173.032 96.856,173.200 97.014,173.200 97.334 C 173.200 97.653,172.933 98.017,172.607 98.142 C 172.280 98.267,172.111 98.623,172.230 98.933 C 172.349 99.243,172.188 99.596,171.872 99.717 C 171.500 99.860,171.368 100.298,171.496 100.968 C 171.640 101.720,171.524 102.000,171.070 102.000 C 170.728 102.000,170.319 102.208,170.162 102.462 C 169.985 102.748,170.052 102.815,170.338 102.638 C 170.615 102.467,170.800 102.613,170.800 103.000 C 170.800 103.356,170.620 103.536,170.400 103.400 C 170.180 103.264,170.000 103.540,170.000 104.012 C 170.000 104.485,169.632 105.171,169.182 105.536 C 168.732 105.901,168.333 106.650,168.294 107.200 C 168.256 107.750,167.905 108.549,167.513 108.975 C 167.121 109.402,166.800 110.066,166.800 110.452 C 166.800 110.837,166.620 111.264,166.400 111.400 C 166.180 111.536,166.000 112.177,166.000 112.824 C 166.000 113.471,165.848 114.000,165.663 114.000 C 165.477 114.000,164.916 114.855,164.416 115.900 C 163.915 116.945,163.167 118.492,162.753 119.338 C 162.339 120.184,161.996 121.174,161.991 121.538 C 161.986 121.902,161.630 122.650,161.200 123.200 C 160.770 123.750,160.414 124.504,160.409 124.876 C 160.404 125.248,160.220 125.664,160.000 125.800 C 159.780 125.936,159.600 126.397,159.600 126.824 C 159.600 127.251,159.420 127.600,159.200 127.600 C 158.980 127.600,158.800 127.960,158.800 128.400 C 158.800 128.840,158.620 129.200,158.400 129.200 C 158.180 129.200,158.000 129.560,158.000 130.000 C 158.000 130.440,157.820 130.800,157.600 130.800 C 157.380 130.800,157.200 131.053,157.200 131.362 C 157.200 132.005,155.789 135.015,153.969 138.255 C 153.554 138.995,153.323 139.600,153.456 139.600 C 153.589 139.600,153.468 139.878,153.186 140.217 C 152.336 141.240,150.831 144.427,151.333 144.139 C 151.590 143.992,151.350 144.379,150.800 145.000 C 150.250 145.621,150.070 145.981,150.400 145.800 C 150.730 145.619,150.550 145.979,150.000 146.600 C 149.450 147.221,149.270 147.581,149.600 147.400 C 149.930 147.219,149.750 147.579,149.200 148.200 C 148.650 148.821,148.425 149.199,148.700 149.041 C 149.485 148.589,149.286 149.089,148.325 149.984 C 147.843 150.433,147.601 150.800,147.787 150.800 C 147.972 150.800,147.781 151.191,147.362 151.669 C 146.943 152.147,146.825 152.406,147.100 152.245 C 147.375 152.084,147.600 152.137,147.600 152.362 C 147.600 152.588,147.195 152.988,146.701 153.253 C 146.102 153.574,145.978 153.793,146.329 153.910 C 146.703 154.034,146.615 154.254,146.028 154.665 C 145.573 154.984,145.200 155.603,145.200 156.039 C 145.200 156.476,144.840 157.220,144.399 157.693 C 143.808 158.327,143.726 158.631,144.087 158.854 C 144.439 159.072,144.329 159.368,143.687 159.924 C 143.199 160.348,142.800 160.968,142.800 161.304 C 142.800 161.640,142.550 162.010,142.244 162.128 C 141.540 162.398,140.309 164.800,140.875 164.800 C 141.102 164.800,140.864 165.174,140.344 165.630 C 139.825 166.087,139.625 166.347,139.900 166.207 C 140.705 165.798,140.476 166.405,139.500 167.266 C 139.005 167.703,138.870 167.942,139.200 167.796 C 139.530 167.650,139.350 167.902,138.800 168.356 C 138.250 168.811,138.025 169.186,138.300 169.191 C 138.575 169.196,138.800 169.391,138.800 169.624 C 138.800 169.857,138.640 169.949,138.445 169.828 C 138.250 169.707,137.845 169.911,137.545 170.281 C 137.170 170.744,137.156 170.860,137.500 170.653 C 137.815 170.464,138.000 170.584,138.000 170.976 C 138.000 171.319,137.724 171.600,137.387 171.600 C 137.051 171.600,136.661 171.915,136.522 172.300 C 136.383 172.685,135.904 173.528,135.456 174.172 C 135.009 174.817,134.858 175.211,135.121 175.049 C 135.932 174.548,135.651 175.227,134.700 176.066 C 134.205 176.503,134.025 176.747,134.300 176.607 C 135.105 176.198,134.876 176.805,133.900 177.666 C 133.405 178.103,133.225 178.347,133.500 178.207 C 133.775 178.067,134.000 178.143,134.000 178.376 C 134.000 178.609,133.847 178.800,133.660 178.800 C 133.281 178.800,130.800 182.640,130.800 183.227 C 130.800 183.432,130.620 183.600,130.400 183.600 C 130.180 183.600,130.000 183.960,130.000 184.400 C 130.000 184.840,129.820 185.200,129.600 185.200 C 129.380 185.200,129.200 185.436,129.200 185.725 C 129.200 186.013,128.840 186.636,128.400 187.108 C 127.960 187.580,127.593 188.289,127.584 188.683 C 127.575 189.077,127.035 190.023,126.384 190.785 C 125.733 191.547,125.200 192.458,125.200 192.809 C 125.200 193.161,124.885 193.798,124.500 194.225 C 124.115 194.651,123.545 195.495,123.232 196.100 C 122.920 196.705,122.515 197.200,122.332 197.200 C 122.150 197.200,122.000 197.478,122.000 197.817 C 122.000 198.156,121.640 198.820,121.200 199.292 C 120.760 199.764,120.400 200.387,120.400 200.675 C 120.400 200.964,120.220 201.200,120.000 201.200 C 119.780 201.200,119.600 201.417,119.600 201.683 C 119.600 201.948,118.837 203.253,117.904 204.583 C 116.972 205.912,116.272 207.000,116.350 207.000 C 116.427 207.000,116.066 207.720,115.546 208.600 C 115.027 209.480,114.651 210.348,114.711 210.530 C 114.771 210.711,114.654 210.757,114.452 210.632 C 114.166 210.456,113.484 211.423,113.564 211.890 C 113.572 211.940,113.134 212.462,112.590 213.049 C 112.045 213.636,111.600 214.357,111.600 214.650 C 111.600 214.944,110.881 216.132,110.002 217.292 C 109.123 218.451,108.403 219.723,108.402 220.117 C 108.401 220.511,108.024 221.231,107.565 221.717 C 106.352 223.001,104.962 224.994,105.521 224.649 C 105.785 224.486,106.000 224.543,106.000 224.776 C 106.000 225.009,105.751 225.200,105.446 225.200 C 105.141 225.200,104.597 225.650,104.237 226.200 C 103.865 226.767,103.767 227.200,104.009 227.200 C 104.244 227.200,103.975 227.662,103.411 228.226 C 102.846 228.790,102.507 229.465,102.656 229.726 C 102.806 229.987,102.782 230.068,102.604 229.906 C 102.226 229.564,101.231 230.742,101.213 231.553 C 101.206 231.857,100.884 232.397,100.497 232.753 C 100.111 233.109,99.540 233.895,99.230 234.500 C 98.919 235.105,98.515 235.600,98.332 235.600 C 98.150 235.600,98.000 235.862,98.000 236.182 C 98.000 236.502,97.540 237.223,96.978 237.785 C 96.385 238.379,96.077 239.015,96.243 239.303 C 96.400 239.577,96.380 239.666,96.199 239.502 C 95.835 239.172,93.200 242.857,93.200 243.696 C 93.200 243.986,92.840 244.483,92.400 244.800 C 91.960 245.117,91.600 245.676,91.600 246.042 C 91.600 246.407,91.240 246.801,90.800 246.916 C 90.335 247.038,90.000 247.462,90.000 247.929 C 90.000 248.371,89.460 249.242,88.800 249.865 C 88.140 250.488,87.600 251.234,87.600 251.522 C 87.600 251.829,87.392 251.928,87.100 251.759 C 86.825 251.601,86.730 251.616,86.889 251.792 C 87.265 252.207,86.005 254.360,85.100 254.849 C 84.715 255.058,84.400 255.492,84.400 255.814 C 84.400 256.136,84.220 256.400,84.000 256.400 C 83.780 256.400,83.600 256.717,83.600 257.104 C 83.600 257.491,83.240 258.032,82.800 258.307 C 82.360 258.582,82.000 259.069,82.000 259.389 C 82.000 259.710,81.640 260.165,81.200 260.400 C 80.760 260.635,80.400 261.003,80.400 261.218 C 80.400 261.432,79.855 262.177,79.190 262.874 C 78.416 263.683,78.118 264.278,78.364 264.524 C 78.798 264.958,78.217 265.687,77.100 266.110 C 76.715 266.256,76.400 266.714,76.400 267.128 C 76.400 267.542,75.860 268.446,75.200 269.137 C 74.540 269.828,74.000 270.664,74.000 270.996 C 74.000 271.328,73.809 271.600,73.576 271.600 C 73.343 271.600,73.264 271.420,73.400 271.200 C 73.802 270.549,73.343 270.744,72.749 271.477 C 72.376 271.937,72.360 272.057,72.700 271.853 C 73.665 271.274,73.185 272.016,71.600 273.554 C 70.720 274.408,70.000 275.320,70.000 275.582 C 70.000 275.843,69.728 276.329,69.396 276.661 C 69.064 276.993,68.882 277.410,68.992 277.587 C 69.102 277.765,68.878 277.885,68.496 277.855 C 68.057 277.820,67.753 278.133,67.672 278.700 C 67.602 279.195,67.377 279.600,67.172 279.600 C 66.967 279.600,66.800 279.876,66.800 280.213 C 66.800 280.549,66.485 280.944,66.100 281.090 C 65.207 281.428,64.400 282.222,64.400 282.762 C 64.400 282.993,63.500 284.125,62.400 285.278 C 61.300 286.431,60.400 287.515,60.400 287.687 C 60.400 287.859,59.680 288.741,58.800 289.648 C 57.920 290.555,57.200 291.543,57.200 291.845 C 57.200 292.146,56.840 292.618,56.400 292.893 C 55.960 293.168,55.600 293.627,55.600 293.913 C 55.600 294.199,55.240 294.820,54.800 295.292 C 54.360 295.764,54.000 296.556,54.000 297.052 C 54.000 297.547,53.820 298.064,53.600 298.200 C 53.078 298.523,53.078 305.877,53.600 306.200 C 53.820 306.336,54.000 306.881,54.000 307.411 C 54.000 309.347,59.108 315.600,60.689 315.600 C 60.970 315.600,61.200 315.780,61.200 316.000 C 61.200 316.220,61.549 316.400,61.976 316.400 C 62.403 316.400,62.864 316.580,63.000 316.800 C 63.136 317.020,63.747 317.200,64.357 317.200 C 64.967 317.200,65.602 317.335,65.767 317.500 C 66.104 317.837,134.400 317.921,134.400 317.585 C 134.400 317.467,134.985 317.326,135.700 317.272 C 136.415 317.219,137.060 317.000,137.133 316.787 C 137.207 316.574,137.486 316.400,137.754 316.400 C 138.463 316.400,140.393 315.451,140.397 315.100 C 140.399 314.935,140.582 314.800,140.805 314.800 C 141.309 314.800,144.398 311.926,144.399 311.456 C 144.400 311.267,145.197 310.326,146.172 309.365 C 147.147 308.404,148.266 307.074,148.658 306.409 C 149.051 305.744,149.514 305.200,149.686 305.200 C 149.859 305.200,150.000 304.949,150.000 304.642 C 150.000 304.336,150.540 303.507,151.200 302.800 C 151.860 302.093,152.400 301.285,152.400 301.004 C 152.400 300.723,152.783 300.393,153.252 300.271 C 153.821 300.122,154.024 299.841,153.865 299.424 C 153.715 299.033,153.845 298.800,154.213 298.800 C 154.536 298.800,154.800 298.536,154.800 298.214 C 154.800 297.892,155.139 297.447,155.553 297.225 C 155.967 297.004,156.415 296.538,156.548 296.190 C 156.708 295.775,156.632 295.657,156.327 295.845 C 156.072 296.003,156.209 295.658,156.632 295.078 C 157.054 294.499,157.535 294.019,157.700 294.013 C 157.865 294.006,158.000 293.730,158.000 293.400 C 158.000 293.070,158.259 292.800,158.576 292.800 C 158.893 292.800,159.281 292.592,159.438 292.338 C 159.630 292.027,159.540 291.983,159.162 292.204 C 158.853 292.384,159.050 292.068,159.600 291.503 C 161.176 289.883,161.769 289.089,161.859 288.481 C 161.904 288.170,162.315 287.655,162.771 287.335 C 163.227 287.016,163.600 286.336,163.600 285.824 C 163.600 285.230,163.889 284.818,164.400 284.684 C 164.841 284.569,165.200 284.138,165.200 283.726 C 165.200 283.314,165.560 282.717,166.000 282.400 C 166.440 282.083,166.800 281.531,166.800 281.174 C 166.800 280.816,167.160 280.198,167.600 279.800 C 168.040 279.402,168.400 278.835,168.400 278.541 C 168.400 278.247,168.760 277.782,169.200 277.507 C 169.640 277.232,170.000 276.731,170.000 276.392 C 170.000 276.054,170.360 275.517,170.800 275.200 C 171.240 274.883,171.600 274.331,171.600 273.974 C 171.600 273.616,171.960 272.998,172.400 272.600 C 172.840 272.202,173.200 271.634,173.200 271.338 C 173.200 271.042,173.350 270.800,173.532 270.800 C 173.715 270.800,174.120 270.305,174.432 269.700 C 174.745 269.095,175.315 268.251,175.700 267.825 C 176.085 267.398,176.400 266.813,176.400 266.525 C 176.400 266.236,176.580 266.000,176.800 266.000 C 177.020 266.000,177.200 265.764,177.200 265.475 C 177.200 265.187,177.560 264.564,178.000 264.092 C 178.440 263.620,178.800 263.123,178.800 262.989 C 178.800 262.854,179.340 261.959,180.000 261.000 C 180.660 260.041,181.200 259.030,181.200 258.754 C 181.200 258.478,181.547 257.880,181.970 257.426 C 182.394 256.972,182.799 256.330,182.870 256.000 C 182.942 255.670,183.315 255.165,183.700 254.877 C 184.085 254.590,184.400 253.915,184.400 253.377 C 184.400 252.840,184.568 252.400,184.773 252.400 C 184.978 252.400,185.553 251.827,186.051 251.128 C 186.550 250.428,186.742 249.989,186.479 250.151 C 186.215 250.314,186.000 250.257,186.000 250.024 C 186.000 249.791,186.168 249.600,186.373 249.600 C 186.880 249.600,188.290 247.570,188.461 246.593 C 188.538 246.157,188.960 245.471,189.400 245.070 C 189.840 244.668,189.977 244.452,189.705 244.590 C 189.385 244.752,189.290 244.632,189.436 244.252 C 189.560 243.927,189.918 243.564,190.231 243.443 C 190.544 243.323,190.800 242.843,190.800 242.377 C 190.800 241.910,191.205 241.190,191.700 240.777 C 192.361 240.226,192.441 240.016,192.000 239.988 C 191.670 239.967,191.850 239.760,192.400 239.529 C 192.991 239.281,193.195 239.032,192.900 238.921 C 192.625 238.818,192.400 238.558,192.400 238.343 C 192.400 238.128,192.560 238.051,192.755 238.172 C 192.950 238.293,193.355 238.089,193.655 237.719 C 194.030 237.256,194.044 237.140,193.700 237.347 C 193.392 237.532,193.200 237.425,193.200 237.070 C 193.200 236.753,193.560 236.399,194.000 236.284 C 194.492 236.155,194.800 235.738,194.800 235.202 C 194.800 234.721,195.205 233.971,195.700 233.534 C 196.195 233.097,196.375 232.853,196.100 232.993 C 195.295 233.402,195.524 232.795,196.500 231.934 C 196.995 231.497,197.175 231.253,196.900 231.393 C 196.102 231.799,196.321 231.162,197.261 230.347 C 197.735 229.936,197.908 229.600,197.646 229.600 C 197.380 229.600,197.530 229.213,197.984 228.725 C 198.433 228.243,198.800 227.613,198.800 227.325 C 198.800 227.036,198.980 226.800,199.200 226.800 C 199.420 226.800,199.600 227.158,199.600 227.597 C 199.600 228.035,199.960 228.618,200.400 228.893 C 201.264 229.432,201.524 230.212,200.700 229.793 C 200.425 229.653,200.625 229.913,201.144 230.370 C 201.664 230.826,201.887 231.200,201.641 231.200 C 201.323 231.200,201.333 231.424,201.677 231.974 C 201.943 232.400,202.316 232.652,202.507 232.534 C 202.697 232.416,202.820 232.563,202.779 232.860 C 202.645 233.836,202.794 234.451,203.117 234.251 C 203.291 234.144,203.461 234.417,203.495 234.860 C 203.569 235.855,204.368 236.867,204.845 236.572 C 205.040 236.451,205.200 236.528,205.200 236.743 C 205.200 236.958,204.975 237.226,204.700 237.340 C 204.397 237.465,204.555 237.654,205.100 237.820 C 205.618 237.977,206.000 238.413,206.000 238.847 C 206.000 239.261,206.180 239.600,206.400 239.600 C 206.620 239.600,206.800 239.791,206.800 240.024 C 206.800 240.257,206.575 240.333,206.300 240.193 C 206.025 240.053,206.205 240.297,206.700 240.734 C 207.629 241.554,207.939 242.257,207.159 241.774 C 206.916 241.624,207.026 241.974,207.405 242.551 C 207.783 243.128,208.363 243.600,208.695 243.600 C 209.160 243.600,209.194 243.725,208.844 244.147 C 208.387 244.698,209.192 245.875,209.687 245.380 C 209.804 245.263,209.900 245.662,209.900 246.267 C 209.900 246.872,210.103 247.434,210.350 247.517 C 210.597 247.599,210.800 247.865,210.800 248.108 C 210.800 248.350,211.205 248.994,211.700 249.539 C 212.195 250.083,212.356 250.388,212.059 250.215 C 211.701 250.008,211.752 250.261,212.211 250.960 C 212.592 251.542,213.179 252.172,213.515 252.361 C 213.851 252.549,214.151 253.040,214.182 253.452 C 214.249 254.367,215.653 256.815,215.990 256.606 C 216.124 256.523,216.263 256.844,216.299 257.320 C 216.335 257.795,216.654 258.397,217.009 258.656 C 217.363 258.915,217.630 259.189,217.601 259.264 C 217.418 259.740,218.165 260.749,218.542 260.534 C 218.794 260.390,218.873 260.412,218.719 260.584 C 218.564 260.756,219.059 261.868,219.819 263.056 C 220.578 264.244,221.200 265.352,221.200 265.519 C 221.200 265.687,221.560 266.083,222.000 266.400 C 222.440 266.717,222.800 267.257,222.800 267.600 C 222.800 267.943,223.160 268.483,223.600 268.800 C 224.040 269.117,224.400 269.614,224.400 269.905 C 224.400 270.196,224.736 270.794,225.146 271.234 C 225.557 271.675,226.305 272.837,226.809 273.818 C 227.313 274.798,227.877 275.600,228.063 275.600 C 228.248 275.600,228.400 275.842,228.400 276.138 C 228.400 276.434,228.760 277.002,229.200 277.400 C 229.640 277.798,230.000 278.338,230.000 278.600 C 230.000 278.862,230.360 279.402,230.800 279.800 C 231.240 280.198,231.600 280.728,231.600 280.976 C 231.600 281.225,232.304 282.230,233.165 283.210 C 234.025 284.190,234.651 285.117,234.556 285.271 C 234.461 285.425,234.702 285.736,235.092 285.963 C 235.600 286.259,235.639 286.379,235.230 286.388 C 234.631 286.401,234.774 286.593,237.400 289.305 C 238.060 289.986,238.375 290.411,238.100 290.248 C 237.236 289.737,237.555 290.395,238.700 291.485 C 239.305 292.060,239.530 292.398,239.200 292.236 C 238.830 292.054,238.866 292.159,239.294 292.510 C 239.675 292.823,239.863 293.203,239.711 293.355 C 239.559 293.507,239.817 293.732,240.284 293.854 C 240.750 293.976,241.241 294.509,241.374 295.038 C 241.507 295.567,241.802 296.000,242.031 296.000 C 242.260 296.000,242.328 296.192,242.183 296.427 C 242.038 296.662,242.297 296.953,242.760 297.074 C 243.222 297.194,243.600 297.535,243.600 297.831 C 243.600 298.127,244.282 299.051,245.116 299.885 C 245.950 300.718,246.939 302.055,247.314 302.856 C 247.689 303.658,248.267 304.417,248.598 304.544 C 248.929 304.671,249.200 305.051,249.200 305.387 C 249.200 305.724,249.336 306.000,249.502 306.000 C 249.669 306.000,250.044 306.540,250.336 307.200 C 250.628 307.860,251.112 308.400,251.411 308.400 C 251.710 308.400,252.274 308.940,252.664 309.600 C 253.054 310.260,253.514 310.800,253.686 310.800 C 253.859 310.800,254.000 311.015,254.000 311.278 C 254.000 311.935,256.029 314.000,256.675 314.000 C 256.964 314.000,257.200 314.137,257.200 314.305 C 257.200 314.612,258.072 315.144,260.100 316.072 C 260.705 316.349,261.200 316.716,261.200 316.888 C 261.200 317.059,261.639 317.200,262.176 317.200 C 262.713 317.200,263.248 317.354,263.364 317.541 C 263.637 317.983,332.767 317.977,333.040 317.535 C 333.154 317.351,333.597 317.200,334.024 317.200 C 334.451 317.200,334.800 317.020,334.800 316.800 C 334.800 316.580,335.340 316.400,336.000 316.400 C 336.660 316.400,337.200 316.250,337.200 316.068 C 337.200 315.885,337.693 315.480,338.295 315.168 C 340.941 313.796,344.400 309.160,344.400 306.986 C 344.400 306.470,344.580 305.936,344.800 305.800 C 345.020 305.664,345.200 304.314,345.200 302.800 C 345.200 301.286,345.020 299.936,344.800 299.800 C 344.580 299.664,344.400 298.843,344.400 297.976 C 344.400 297.109,344.220 296.400,344.000 296.400 C 343.780 296.400,343.600 296.040,343.600 295.600 C 343.600 295.160,343.420 294.800,343.200 294.800 C 342.980 294.800,342.800 294.557,342.800 294.259 C 342.800 293.962,342.260 293.154,341.600 292.463 C 340.940 291.772,340.400 291.047,340.400 290.850 C 340.400 290.654,339.229 289.287,337.797 287.812 C 336.366 286.338,335.314 284.939,335.459 284.704 C 335.616 284.451,335.535 284.393,335.262 284.562 C 334.988 284.731,334.800 284.593,334.800 284.224 C 334.800 283.881,334.664 283.600,334.498 283.600 C 334.331 283.600,333.960 283.069,333.673 282.419 C 333.385 281.769,332.798 281.126,332.369 280.990 C 331.940 280.854,331.692 280.574,331.820 280.368 C 331.947 280.163,331.769 279.886,331.425 279.754 C 331.081 279.622,330.800 279.168,330.800 278.744 C 330.800 278.320,330.396 277.812,329.900 277.612 C 329.405 277.413,329.141 277.239,329.314 277.225 C 329.928 277.176,328.760 275.599,328.086 275.568 C 327.665 275.549,327.594 275.459,327.902 275.334 C 328.179 275.223,328.308 274.975,328.190 274.783 C 328.071 274.592,327.679 274.548,327.318 274.687 C 326.842 274.870,326.726 274.771,326.896 274.327 C 327.194 273.551,326.038 271.776,323.700 269.416 C 323.205 268.917,322.800 268.316,322.800 268.081 C 322.800 267.846,322.440 267.540,322.000 267.400 C 321.560 267.260,321.200 266.888,321.200 266.573 C 321.200 266.258,321.020 266.000,320.800 266.000 C 320.580 266.000,320.400 265.640,320.400 265.200 C 320.400 264.760,320.220 264.400,320.000 264.400 C 319.780 264.400,319.600 264.175,319.600 263.900 C 319.600 263.625,318.880 262.612,318.000 261.649 C 317.120 260.687,316.400 259.652,316.400 259.349 C 316.400 259.047,316.220 258.800,316.000 258.800 C 315.780 258.800,315.600 258.552,315.600 258.248 C 315.600 257.945,314.880 256.955,314.000 256.048 C 313.120 255.141,312.400 254.194,312.400 253.943 C 312.400 253.692,311.860 252.971,311.200 252.340 C 310.540 251.709,310.000 250.925,310.000 250.597 C 310.000 250.268,309.820 250.000,309.600 250.000 C 309.380 250.000,309.200 249.720,309.200 249.378 C 309.200 249.036,308.661 248.181,308.002 247.478 C 307.343 246.775,306.803 245.975,306.802 245.700 C 306.801 245.425,306.620 245.200,306.400 245.200 C 306.180 245.200,306.000 244.913,306.000 244.563 C 306.000 244.212,305.640 243.831,305.200 243.716 C 304.672 243.578,304.400 243.170,304.400 242.516 C 304.400 241.862,304.128 241.454,303.600 241.316 C 303.160 241.201,302.800 240.851,302.800 240.538 C 302.800 239.669,300.175 235.962,299.801 236.302 C 299.620 236.466,299.594 236.387,299.744 236.126 C 299.893 235.865,299.552 235.189,298.986 234.622 C 298.420 234.056,298.053 233.437,298.171 233.247 C 298.289 233.057,297.938 232.565,297.392 232.155 C 296.432 231.434,295.960 230.481,296.830 231.018 C 297.067 231.165,297.031 230.918,296.749 230.468 C 296.469 230.019,296.068 229.758,295.858 229.888 C 295.648 230.017,295.598 229.927,295.746 229.688 C 295.894 229.448,295.562 228.798,295.008 228.244 C 294.453 227.690,294.000 226.851,294.000 226.381 C 294.000 225.862,293.685 225.443,293.200 225.316 C 292.760 225.201,292.400 224.937,292.400 224.730 C 292.400 224.522,292.599 224.476,292.841 224.626 C 293.084 224.776,292.974 224.426,292.595 223.849 C 292.217 223.272,291.659 222.800,291.354 222.800 C 291.049 222.800,290.800 222.609,290.800 222.376 C 290.800 222.143,290.999 222.076,291.241 222.226 C 291.484 222.376,291.374 222.026,290.995 221.449 C 290.617 220.872,290.059 220.400,289.754 220.400 C 289.449 220.400,289.200 220.209,289.200 219.976 C 289.200 219.743,289.380 219.664,289.600 219.800 C 289.820 219.936,290.000 219.840,290.000 219.586 C 290.000 219.333,289.640 219.031,289.200 218.916 C 288.438 218.717,288.332 218.532,288.237 217.240 C 288.215 216.931,287.837 216.539,287.398 216.368 C 286.959 216.196,286.846 216.044,287.147 216.028 C 287.689 216.000,286.066 213.498,284.924 212.600 C 284.644 212.380,284.353 211.780,284.278 211.267 C 284.202 210.754,283.914 210.194,283.636 210.022 C 283.359 209.851,283.124 209.551,283.115 209.355 C 283.078 208.576,282.696 208.017,282.348 208.232 C 282.146 208.357,282.030 208.281,282.090 208.063 C 282.225 207.577,280.330 204.400,279.906 204.400 C 279.738 204.400,279.600 204.078,279.600 203.685 C 279.600 203.292,279.067 202.347,278.416 201.585 C 277.765 200.823,277.225 199.951,277.216 199.647 C 277.207 199.343,276.885 198.801,276.500 198.443 C 275.599 197.604,274.800 196.177,274.800 195.405 C 274.800 195.072,274.620 194.800,274.400 194.800 C 274.180 194.800,274.000 194.558,274.000 194.262 C 274.000 193.966,273.640 193.398,273.200 193.000 C 272.760 192.602,272.400 191.959,272.400 191.571 C 272.400 191.184,272.265 190.807,272.100 190.733 C 271.935 190.660,271.367 189.745,270.837 188.700 C 270.308 187.655,269.723 186.800,269.537 186.800 C 269.352 186.800,269.200 186.455,269.200 186.033 C 269.200 185.612,269.065 185.207,268.900 185.133 C 268.485 184.949,267.377 183.064,265.923 180.067 C 265.247 178.674,264.448 177.440,264.147 177.324 C 263.846 177.209,263.600 176.943,263.600 176.734 C 263.600 176.524,263.784 176.467,264.010 176.606 C 264.672 177.015,262.823 173.864,261.974 173.136 C 261.135 172.416,260.911 171.774,261.662 172.238 C 261.948 172.415,262.015 172.348,261.838 172.062 C 261.681 171.808,261.293 171.600,260.976 171.600 C 260.659 171.600,260.400 171.319,260.400 170.976 C 260.400 170.609,260.605 170.457,260.900 170.607 C 261.175 170.747,260.995 170.503,260.500 170.066 C 260.005 169.629,259.600 169.076,259.600 168.836 C 259.600 168.596,259.420 168.400,259.200 168.400 C 258.980 168.400,258.800 168.209,258.800 167.976 C 258.800 167.743,259.025 167.667,259.300 167.807 C 259.575 167.947,259.395 167.703,258.900 167.266 C 258.405 166.829,258.000 166.186,258.000 165.836 C 258.000 165.486,257.820 165.200,257.600 165.200 C 257.380 165.200,257.200 164.930,257.200 164.600 C 257.200 164.270,257.020 164.000,256.800 164.000 C 256.580 164.000,256.400 163.454,256.400 162.787 C 256.400 162.081,256.151 161.479,255.802 161.346 C 255.474 161.219,255.304 160.955,255.426 160.758 C 255.548 160.561,255.457 160.400,255.224 160.400 C 254.991 160.400,254.800 159.956,254.800 159.414 C 254.800 158.838,254.468 158.250,254.000 158.000 C 253.147 157.544,252.855 156.578,253.700 157.007 C 253.975 157.147,253.795 156.903,253.300 156.466 C 252.805 156.029,252.400 155.331,252.400 154.914 C 252.400 153.864,250.416 149.981,249.748 149.725 C 249.447 149.609,249.200 149.210,249.200 148.837 C 249.200 148.465,248.975 147.918,248.700 147.621 C 248.375 147.271,248.363 147.174,248.667 147.345 C 249.174 147.629,247.835 144.817,246.699 143.211 C 246.315 142.667,246.000 141.936,246.000 141.586 C 246.000 141.237,245.640 140.564,245.200 140.092 C 244.760 139.620,244.400 138.956,244.400 138.617 C 244.400 138.278,244.220 138.000,244.000 138.000 C 243.780 138.000,243.600 137.728,243.600 137.395 C 243.600 137.062,243.443 136.477,243.250 136.095 C 241.752 133.120,241.200 131.847,241.200 131.362 C 241.200 131.053,241.020 130.800,240.800 130.800 C 240.580 130.800,240.400 130.440,240.400 130.000 C 240.400 129.560,240.220 129.200,240.000 129.200 C 239.780 129.200,239.600 128.840,239.600 128.400 C 239.600 127.960,239.420 127.600,239.200 127.600 C 238.980 127.600,238.800 127.251,238.800 126.824 C 238.800 126.397,238.620 125.936,238.400 125.800 C 238.180 125.664,237.996 125.248,237.991 124.876 C 237.986 124.504,237.630 123.750,237.200 123.200 C 236.770 122.650,236.414 121.795,236.409 121.300 C 236.404 120.805,236.220 120.400,236.000 120.400 C 235.780 120.400,235.600 120.040,235.600 119.600 C 235.600 119.160,235.420 118.800,235.200 118.800 C 234.980 118.800,234.800 118.445,234.800 118.012 C 234.800 117.579,234.440 116.583,234.000 115.800 C 233.560 115.017,233.196 114.156,233.191 113.888 C 233.186 113.620,232.830 112.950,232.400 112.400 C 231.970 111.850,231.614 110.984,231.609 110.476 C 231.604 109.968,231.422 109.663,231.205 109.797 C 230.978 109.937,230.911 109.777,231.046 109.424 C 231.186 109.060,231.019 108.706,230.642 108.561 C 230.289 108.425,230.000 108.143,230.000 107.934 C 230.000 107.724,230.225 107.684,230.500 107.845 C 230.775 108.006,230.657 107.747,230.238 107.269 C 229.819 106.791,229.621 106.400,229.799 106.400 C 229.977 106.400,229.735 106.064,229.261 105.653 C 228.338 104.852,228.072 103.786,228.900 104.207 C 229.175 104.347,228.995 104.103,228.500 103.666 C 227.559 102.836,227.265 102.146,228.062 102.638 C 228.348 102.815,228.415 102.748,228.238 102.462 C 228.081 102.208,227.693 102.000,227.376 102.000 C 227.003 102.000,226.800 101.578,226.800 100.800 C 226.800 100.110,226.588 99.597,226.300 99.594 C 225.931 99.589,225.941 99.498,226.341 99.245 C 226.767 98.975,226.698 98.774,226.011 98.293 C 225.441 97.893,225.296 97.588,225.590 97.406 C 225.920 97.202,225.916 96.980,225.574 96.569 C 225.318 96.261,224.950 96.107,224.755 96.228 C 224.560 96.349,224.400 96.156,224.400 95.800 C 224.400 95.413,224.585 95.267,224.862 95.438 C 225.148 95.615,225.215 95.548,225.038 95.262 C 224.881 95.008,224.493 94.800,224.176 94.800 C 223.859 94.800,223.600 94.519,223.600 94.176 C 223.600 93.784,223.785 93.664,224.100 93.853 C 224.652 94.185,223.662 92.793,223.000 92.306 C 222.762 92.131,222.830 92.010,223.170 92.006 C 223.565 92.002,223.442 91.673,222.770 90.935 C 222.236 90.350,222.070 90.025,222.400 90.212 C 223.072 90.595,222.217 89.306,221.400 88.706 C 221.147 88.520,221.173 88.410,221.469 88.406 C 221.984 88.399,221.067 86.212,220.368 85.780 C 220.158 85.651,220.083 85.389,220.201 85.198 C 220.407 84.865,219.113 82.208,218.362 81.420 C 218.163 81.211,218.000 80.733,218.000 80.358 C 218.000 79.983,217.661 78.984,217.247 78.138 C 216.833 77.292,216.085 75.745,215.584 74.700 C 215.084 73.655,214.512 72.800,214.314 72.800 C 214.115 72.800,214.055 72.635,214.180 72.432 C 214.305 72.230,214.181 71.821,213.904 71.523 C 213.627 71.225,213.350 70.715,213.289 70.390 C 212.914 68.403,207.812 62.800,206.377 62.800 C 205.976 62.800,205.536 62.620,205.400 62.400 C 205.264 62.180,204.803 62.000,204.376 62.000 C 203.949 62.000,203.600 61.820,203.600 61.600 C 203.600 61.357,201.808 61.200,199.024 61.200 C 196.404 61.200,194.342 61.371,194.200 61.600 M202.874 84.231 C 207.568 94.528,208.095 95.687,211.363 102.905 C 213.034 106.592,214.400 109.694,214.400 109.798 C 214.400 109.901,215.191 111.654,216.158 113.693 C 218.198 117.996,222.656 127.876,225.400 134.178 L 227.306 138.556 224.200 144.578 C 221.381 150.044,215.723 160.964,206.504 178.725 C 201.301 188.750,199.766 191.400,199.162 191.400 C 198.566 191.400,197.428 189.390,191.127 177.200 C 188.910 172.910,186.423 168.140,185.600 166.600 C 184.777 165.060,182.641 160.965,180.852 157.500 C 179.063 154.035,176.148 148.408,174.374 144.996 C 171.987 140.405,171.217 138.560,171.411 137.896 C 171.556 137.403,173.301 133.400,175.288 129.000 C 177.276 124.600,179.346 120.010,179.889 118.800 C 180.432 117.590,181.290 115.700,181.797 114.600 C 182.304 113.500,183.075 111.790,183.511 110.800 C 186.155 104.793,191.611 92.669,193.591 88.400 C 194.867 85.650,196.557 81.989,197.346 80.264 C 199.207 76.198,199.214 76.203,202.874 84.231 M167.946 149.834 C 168.104 149.736,168.258 149.958,168.286 150.328 C 168.373 151.444,170.649 155.407,171.141 155.300 C 171.394 155.245,171.600 155.380,171.600 155.600 C 171.600 155.820,171.375 156.006,171.100 156.013 C 170.825 156.021,171.006 156.365,171.502 156.779 C 172.126 157.300,172.249 157.596,171.902 157.739 C 171.596 157.865,171.751 158.053,172.300 158.220 C 172.795 158.370,173.197 158.787,173.194 159.147 C 173.189 159.715,173.137 159.722,172.800 159.200 C 172.587 158.870,172.409 158.745,172.406 158.921 C 172.392 159.665,174.321 162.040,174.525 161.529 C 174.642 161.238,174.751 161.416,174.768 161.924 C 174.790 162.554,174.641 162.756,174.300 162.559 C 174.010 162.392,173.940 162.424,174.133 162.636 C 174.317 162.836,174.662 163.000,174.900 163.000 C 175.138 163.000,175.417 163.250,175.519 163.556 C 175.642 163.926,175.533 164.006,175.190 163.794 C 174.853 163.586,174.775 163.635,174.962 163.938 C 175.119 164.192,175.507 164.400,175.824 164.400 C 176.141 164.400,176.400 164.681,176.400 165.024 C 176.400 165.416,176.215 165.536,175.900 165.347 C 175.556 165.140,175.570 165.256,175.945 165.719 C 176.245 166.089,176.650 166.293,176.845 166.172 C 177.040 166.051,177.200 166.323,177.200 166.776 C 177.200 167.229,177.380 167.600,177.600 167.600 C 177.820 167.600,178.000 167.881,178.000 168.224 C 178.000 168.593,177.812 168.731,177.538 168.562 C 177.252 168.385,177.185 168.452,177.362 168.738 C 177.519 168.992,177.907 169.200,178.224 169.200 C 178.541 169.200,178.800 169.391,178.800 169.624 C 178.800 169.857,178.575 169.933,178.300 169.793 C 178.025 169.653,178.205 169.897,178.700 170.334 C 179.668 171.188,179.919 171.831,179.100 171.359 C 178.825 171.201,179.014 171.527,179.521 172.084 C 180.027 172.640,180.470 173.467,180.504 173.920 C 180.538 174.374,180.709 174.656,180.883 174.549 C 181.057 174.441,181.200 174.633,181.200 174.976 C 181.200 175.319,181.380 175.600,181.600 175.600 C 181.820 175.600,182.000 176.140,182.000 176.800 C 182.000 177.460,182.135 178.001,182.300 178.001 C 182.465 178.002,183.045 178.978,183.590 180.170 C 184.134 181.361,184.682 182.273,184.807 182.196 C 184.932 182.119,185.062 182.426,185.096 182.880 C 185.130 183.333,185.528 184.097,185.979 184.578 C 186.431 185.058,186.800 185.755,186.800 186.126 C 186.800 186.497,186.980 186.800,187.200 186.800 C 187.420 186.800,187.600 187.053,187.600 187.362 C 187.600 187.885,189.146 191.153,189.605 191.600 C 189.718 191.710,190.242 192.655,190.768 193.700 C 191.295 194.745,191.877 195.600,192.063 195.600 C 192.248 195.600,192.400 195.865,192.400 196.188 C 192.400 196.511,192.760 197.417,193.200 198.200 C 193.640 198.983,194.000 199.973,194.000 200.400 C 194.000 200.827,193.640 201.817,193.200 202.600 C 192.760 203.383,192.400 204.289,192.400 204.612 C 192.400 204.935,192.264 205.200,192.098 205.200 C 191.735 205.200,190.579 207.660,190.721 208.130 C 190.775 208.311,190.635 208.345,190.410 208.206 C 190.031 207.972,189.796 208.858,189.986 209.800 C 190.030 210.020,189.929 210.062,189.760 209.893 C 189.381 209.514,187.979 212.443,188.295 212.954 C 188.421 213.157,188.316 213.195,188.062 213.038 C 187.759 212.851,187.600 213.105,187.600 213.776 C 187.600 214.339,187.420 214.800,187.200 214.800 C 186.980 214.800,186.800 215.120,186.800 215.512 C 186.800 215.903,186.440 216.483,186.000 216.800 C 185.560 217.117,185.200 217.697,185.200 218.088 C 185.200 218.480,185.057 218.800,184.882 218.800 C 184.707 218.800,184.230 219.611,183.821 220.602 C 183.412 221.592,182.846 222.596,182.563 222.831 C 182.279 223.066,182.137 223.492,182.247 223.778 C 182.356 224.063,182.166 224.404,181.823 224.536 C 181.480 224.667,181.200 225.231,181.200 225.787 C 181.200 226.344,181.020 226.800,180.800 226.800 C 180.580 226.800,180.393 227.025,180.384 227.300 C 180.375 227.575,179.835 228.423,179.184 229.185 C 178.533 229.947,178.000 230.982,178.000 231.485 C 178.000 231.988,177.775 232.403,177.500 232.406 C 177.108 232.411,177.106 232.479,177.491 232.724 C 177.852 232.954,177.773 233.187,177.191 233.606 C 176.756 233.920,176.400 234.497,176.400 234.888 C 176.400 235.280,176.220 235.600,176.000 235.600 C 175.780 235.600,175.600 235.971,175.600 236.424 C 175.600 236.877,175.434 237.144,175.231 237.019 C 174.887 236.806,173.200 238.785,173.200 239.400 C 173.200 239.552,172.805 240.232,172.321 240.910 C 171.838 241.589,171.681 241.997,171.973 241.817 C 172.334 241.593,172.445 241.666,172.319 242.044 C 172.217 242.350,171.896 242.600,171.607 242.600 C 171.020 242.600,170.382 243.999,170.712 244.562 C 170.828 244.761,170.716 244.795,170.462 244.638 C 170.167 244.456,170.000 244.664,170.000 245.212 C 170.000 245.685,169.595 246.429,169.100 246.866 C 168.605 247.303,168.425 247.547,168.700 247.407 C 168.975 247.267,169.200 247.343,169.200 247.576 C 169.200 247.809,168.938 248.000,168.619 248.000 C 168.299 248.000,167.680 248.765,167.243 249.700 C 166.263 251.796,165.221 253.516,164.300 254.558 C 163.915 254.994,163.600 255.587,163.600 255.875 C 163.600 256.164,163.420 256.400,163.200 256.400 C 162.980 256.400,162.800 256.720,162.800 257.112 C 162.800 257.503,162.440 258.083,162.000 258.400 C 161.560 258.717,161.200 259.297,161.200 259.688 C 161.200 260.080,161.050 260.400,160.868 260.400 C 160.685 260.400,160.280 260.895,159.968 261.500 C 159.655 262.105,159.085 262.949,158.700 263.375 C 158.315 263.802,158.000 264.387,158.000 264.675 C 158.000 264.964,157.820 265.200,157.600 265.200 C 157.380 265.200,157.200 265.478,157.200 265.818 C 157.200 266.158,156.795 266.857,156.300 267.370 C 155.006 268.713,151.600 273.463,151.600 273.925 C 151.600 274.140,151.060 274.893,150.400 275.600 C 149.740 276.307,149.194 277.181,149.187 277.542 C 149.172 278.343,148.265 279.600,147.702 279.600 C 147.476 279.600,146.983 280.072,146.605 280.649 C 146.131 281.373,146.085 281.615,146.459 281.431 C 146.756 281.283,146.595 281.463,146.100 281.830 C 145.605 282.197,145.200 282.848,145.200 283.277 C 145.200 284.097,144.325 285.200,143.675 285.200 C 143.464 285.200,142.983 285.672,142.605 286.249 C 142.226 286.826,142.116 287.176,142.359 287.026 C 142.601 286.876,142.800 286.943,142.800 287.176 C 142.800 287.409,142.558 287.600,142.262 287.600 C 141.966 287.600,141.398 287.960,141.000 288.400 C 140.602 288.840,140.428 289.200,140.614 289.200 C 140.801 289.200,140.604 289.483,140.176 289.830 C 139.749 290.176,139.625 290.345,139.900 290.206 C 140.175 290.067,140.400 290.143,140.400 290.376 C 140.400 290.609,140.124 290.800,139.787 290.800 C 139.451 290.800,139.054 291.115,138.907 291.500 C 138.760 291.885,138.270 292.529,137.819 292.930 C 137.369 293.332,137.225 293.547,137.500 293.407 C 137.775 293.267,138.000 293.343,138.000 293.576 C 138.000 293.809,137.724 294.000,137.387 294.000 C 137.051 294.000,136.657 294.315,136.514 294.700 C 136.370 295.085,135.926 295.635,135.526 295.923 C 135.127 296.210,134.800 296.703,134.800 297.017 C 134.800 297.331,133.970 298.395,132.956 299.381 L 131.112 301.173 100.956 301.192 C 84.370 301.203,70.800 301.120,70.800 301.007 C 70.800 300.893,71.520 300.059,72.400 299.152 C 73.280 298.245,74.000 297.382,74.000 297.234 C 74.000 297.085,74.900 295.990,76.000 294.800 C 77.100 293.610,78.000 292.493,78.000 292.318 C 78.000 292.143,78.360 291.640,78.800 291.200 C 79.240 290.760,79.600 290.130,79.600 289.800 C 79.600 289.470,79.871 289.200,80.201 289.200 C 80.532 289.200,81.101 288.510,81.467 287.667 C 81.832 286.823,82.506 285.968,82.965 285.767 C 83.424 285.565,83.978 284.995,84.195 284.500 C 84.412 284.005,84.727 283.600,84.895 283.600 C 85.063 283.600,85.200 283.240,85.200 282.800 C 85.200 282.360,85.464 282.000,85.786 282.000 C 86.438 282.000,87.315 280.648,86.919 280.253 C 86.780 280.114,86.877 280.000,87.133 280.000 C 87.390 280.000,87.600 279.730,87.600 279.400 C 87.600 279.070,87.883 278.800,88.230 278.800 C 88.583 278.800,89.154 278.107,89.530 277.222 C 89.898 276.354,90.515 275.561,90.900 275.459 C 91.339 275.344,91.600 274.889,91.600 274.237 C 91.600 273.620,91.824 273.200,92.154 273.200 C 92.780 273.200,94.000 271.522,94.000 270.661 C 94.000 270.349,94.360 269.999,94.800 269.884 C 95.341 269.743,95.600 269.338,95.600 268.637 C 95.600 267.990,95.822 267.600,96.190 267.600 C 96.811 267.600,98.246 265.284,98.049 264.600 C 97.985 264.380,98.068 264.334,98.232 264.498 C 98.590 264.857,101.200 261.092,101.200 260.216 C 101.200 259.877,101.487 259.600,101.837 259.600 C 102.188 259.600,102.569 259.240,102.684 258.800 C 102.799 258.360,103.052 258.000,103.247 258.000 C 103.441 258.000,103.600 257.683,103.600 257.296 C 103.600 256.909,103.960 256.368,104.400 256.093 C 104.840 255.818,105.200 255.235,105.200 254.797 C 105.200 254.348,105.468 254.000,105.813 254.000 C 106.149 254.000,106.545 253.685,106.692 253.300 C 106.839 252.915,107.284 252.251,107.680 251.825 C 108.076 251.398,108.400 250.654,108.400 250.171 C 108.400 249.630,108.707 249.213,109.200 249.084 C 109.673 248.960,110.000 248.538,110.000 248.052 C 110.000 247.599,110.360 247.035,110.800 246.800 C 111.240 246.565,111.600 246.108,111.600 245.786 C 111.600 245.464,111.750 245.200,111.932 245.200 C 112.115 245.200,112.520 244.705,112.832 244.100 C 113.145 243.495,113.715 242.651,114.100 242.225 C 114.485 241.798,114.800 241.213,114.800 240.925 C 114.800 240.636,114.950 240.400,115.132 240.400 C 115.315 240.400,115.720 239.905,116.032 239.300 C 116.345 238.695,116.915 237.851,117.300 237.425 C 117.685 236.998,118.000 236.404,118.000 236.103 C 118.000 235.262,119.829 232.766,120.200 233.102 C 120.380 233.266,120.408 233.190,120.260 232.932 C 120.113 232.675,120.256 232.201,120.577 231.880 C 120.899 231.558,121.050 231.184,120.914 231.048 C 120.778 230.911,120.967 230.800,121.333 230.800 C 121.733 230.800,122.000 230.480,122.000 230.000 C 122.000 229.560,122.180 229.200,122.400 229.200 C 122.620 229.200,122.800 228.840,122.800 228.400 C 122.800 227.960,122.954 227.600,123.142 227.600 C 123.330 227.600,124.264 226.489,125.216 225.130 C 126.169 223.772,126.690 222.791,126.374 222.949 C 126.058 223.107,126.205 222.937,126.700 222.570 C 127.195 222.203,127.600 221.679,127.600 221.405 C 127.600 221.132,128.002 220.397,128.493 219.773 C 129.016 219.108,129.140 218.762,128.793 218.938 C 128.467 219.102,128.605 218.937,129.100 218.570 C 129.595 218.203,130.000 217.583,130.000 217.194 C 130.000 216.804,130.545 215.901,131.212 215.187 C 131.878 214.474,132.330 213.796,132.215 213.682 C 132.101 213.567,132.209 213.230,132.456 212.932 C 133.095 212.163,134.379 209.927,134.658 209.100 C 134.787 208.715,135.052 208.400,135.247 208.400 C 135.441 208.400,135.600 208.040,135.600 207.600 C 135.600 207.160,135.780 206.800,136.000 206.800 C 136.220 206.800,136.400 206.564,136.400 206.275 C 136.400 205.987,136.760 205.364,137.200 204.892 C 137.640 204.420,138.000 203.756,138.000 203.417 C 138.000 203.078,138.180 202.800,138.400 202.800 C 138.620 202.800,138.800 202.522,138.800 202.183 C 138.800 201.844,139.160 201.180,139.600 200.708 C 140.040 200.236,140.400 199.613,140.400 199.325 C 140.400 199.036,140.580 198.800,140.800 198.800 C 141.020 198.800,141.200 198.607,141.200 198.372 C 141.200 198.137,141.740 197.159,142.400 196.200 C 143.060 195.241,143.600 194.256,143.600 194.011 C 143.600 193.767,143.960 193.180,144.400 192.708 C 144.840 192.236,145.200 191.603,145.200 191.301 C 145.200 191.000,145.749 190.070,146.421 189.234 C 147.092 188.399,147.669 187.342,147.704 186.885 C 147.738 186.429,147.871 186.120,147.998 186.199 C 148.126 186.278,148.479 185.770,148.783 185.071 C 149.087 184.372,149.440 183.710,149.568 183.600 C 150.087 183.153,150.800 181.563,150.800 180.854 C 150.800 180.438,151.205 179.797,151.700 179.430 C 152.195 179.063,152.375 178.872,152.100 179.005 C 151.300 179.393,151.522 178.797,152.500 177.934 C 152.995 177.497,153.175 177.253,152.900 177.393 C 152.076 177.812,152.336 177.032,153.200 176.493 C 153.640 176.218,154.000 175.645,154.000 175.220 C 154.000 174.795,154.180 174.336,154.400 174.200 C 154.620 174.064,154.800 173.603,154.800 173.176 C 154.800 172.749,154.980 172.400,155.200 172.400 C 155.420 172.400,155.600 172.114,155.600 171.764 C 155.600 171.414,156.005 170.771,156.500 170.334 C 156.995 169.897,157.130 169.672,156.800 169.834 C 156.470 169.996,156.650 169.621,157.200 169.000 C 157.750 168.379,157.930 168.019,157.600 168.200 C 157.270 168.381,157.450 168.021,158.000 167.400 C 158.550 166.779,158.775 166.401,158.500 166.559 C 158.225 166.718,158.000 166.657,158.000 166.424 C 158.000 166.191,158.180 166.000,158.400 166.000 C 158.620 166.000,158.800 165.629,158.800 165.176 C 158.800 164.723,158.960 164.451,159.155 164.572 C 159.350 164.693,159.755 164.489,160.055 164.119 C 160.430 163.656,160.444 163.540,160.100 163.747 C 159.777 163.941,159.600 163.803,159.600 163.357 C 159.600 162.977,159.718 162.785,159.863 162.930 C 160.197 163.264,161.202 162.450,161.194 161.851 C 161.191 161.603,161.013 161.670,160.800 162.000 C 160.587 162.330,160.409 162.397,160.406 162.149 C 160.403 161.901,160.805 161.397,161.300 161.030 C 161.795 160.663,161.975 160.472,161.700 160.605 C 161.410 160.745,161.200 160.585,161.200 160.224 C 161.200 159.881,161.402 159.645,161.648 159.700 C 162.316 159.849,163.591 157.473,163.040 157.106 C 162.735 156.903,162.754 156.810,163.100 156.806 C 163.375 156.803,163.600 156.440,163.600 156.000 C 163.600 155.560,163.780 155.200,164.000 155.200 C 164.220 155.200,164.400 154.840,164.400 154.400 C 164.400 153.960,164.537 153.600,164.704 153.600 C 164.871 153.600,165.244 153.221,165.533 152.758 C 165.969 152.061,165.968 151.969,165.530 152.223 C 165.238 152.391,165.405 152.083,165.900 151.539 C 166.395 150.994,166.800 150.185,166.800 149.741 C 166.800 148.602,167.374 148.151,167.529 149.168 C 167.599 149.632,167.787 149.932,167.946 149.834 M231.600 149.725 C 231.600 150.013,231.952 150.627,232.381 151.088 C 232.811 151.549,233.233 152.348,233.319 152.863 C 233.583 154.450,234.321 155.915,235.078 156.356 C 235.574 156.644,235.624 156.779,235.239 156.788 C 234.859 156.796,234.957 157.042,235.539 157.547 C 236.479 158.362,236.698 158.999,235.900 158.593 C 235.625 158.453,235.805 158.697,236.300 159.134 C 236.795 159.571,237.200 160.214,237.200 160.564 C 237.200 160.914,237.380 161.200,237.600 161.200 C 237.820 161.200,238.000 161.391,238.000 161.624 C 238.000 161.857,237.775 161.933,237.500 161.793 C 237.225 161.653,237.425 161.913,237.944 162.370 C 238.523 162.879,238.678 163.202,238.344 163.206 C 238.016 163.210,237.958 163.329,238.200 163.506 C 239.045 164.127,239.862 165.385,239.200 165.046 C 238.870 164.877,239.005 165.097,239.500 165.534 C 240.476 166.395,240.705 167.002,239.900 166.593 C 239.625 166.453,239.805 166.697,240.300 167.134 C 240.795 167.571,241.200 168.214,241.200 168.564 C 241.200 168.914,241.380 169.200,241.600 169.200 C 241.820 169.200,242.000 169.391,242.000 169.624 C 242.000 169.857,241.775 169.933,241.500 169.793 C 241.225 169.653,241.405 169.897,241.900 170.334 C 242.395 170.771,242.800 171.425,242.800 171.788 C 242.800 172.150,242.980 172.336,243.200 172.200 C 243.434 172.055,243.600 172.475,243.600 173.214 C 243.600 174.138,243.813 174.531,244.400 174.684 C 244.840 174.799,245.200 175.153,245.200 175.470 C 245.200 175.805,245.006 175.927,244.738 175.762 C 244.452 175.585,244.385 175.652,244.562 175.938 C 244.719 176.192,245.107 176.400,245.424 176.400 C 245.772 176.400,246.000 176.796,246.000 177.400 C 246.000 177.950,246.180 178.400,246.400 178.400 C 246.620 178.400,246.800 178.810,246.800 179.312 C 246.800 179.813,247.160 180.483,247.600 180.800 C 248.040 181.117,248.400 181.676,248.400 182.043 C 248.400 182.826,249.040 184.109,250.327 185.906 C 250.837 186.618,251.140 187.200,251.000 187.200 C 250.860 187.200,251.079 187.695,251.487 188.300 C 251.895 188.905,252.478 189.895,252.782 190.500 C 253.086 191.105,253.485 191.600,253.668 191.600 C 253.850 191.600,254.006 191.915,254.013 192.300 C 254.030 193.225,254.992 194.466,255.404 194.094 C 255.582 193.932,255.608 194.010,255.460 194.268 C 255.313 194.525,255.464 195.007,255.796 195.339 C 256.128 195.671,256.400 196.138,256.400 196.377 C 256.400 196.996,257.280 198.480,258.100 199.243 C 258.485 199.601,258.800 200.188,258.800 200.547 C 258.800 200.906,258.980 201.200,259.200 201.200 C 259.420 201.200,259.600 201.560,259.600 202.000 C 259.600 202.440,259.780 202.800,260.000 202.800 C 260.220 202.800,260.400 203.042,260.400 203.338 C 260.400 203.634,260.760 204.202,261.200 204.600 C 261.640 204.998,262.000 205.574,262.000 205.879 C 262.000 206.184,262.360 206.820,262.800 207.292 C 263.240 207.764,263.600 208.387,263.600 208.675 C 263.600 208.964,263.780 209.200,264.000 209.200 C 264.220 209.200,264.400 209.560,264.400 210.000 C 264.400 210.440,264.535 210.801,264.700 210.803 C 264.865 210.805,265.206 211.210,265.459 211.703 C 267.216 215.138,268.074 216.599,268.482 216.851 C 268.740 217.010,269.262 217.919,269.643 218.870 C 270.023 219.822,270.512 220.561,270.729 220.513 C 270.946 220.465,271.229 220.699,271.357 221.033 C 271.514 221.441,271.428 221.546,271.095 221.352 C 270.587 221.055,271.919 222.795,272.551 223.255 C 272.744 223.396,272.771 223.723,272.611 223.982 C 272.432 224.272,272.642 224.538,273.155 224.672 C 273.615 224.793,273.892 225.050,273.772 225.245 C 273.651 225.440,273.833 225.600,274.176 225.600 C 274.519 225.600,274.800 225.881,274.800 226.224 C 274.800 226.593,274.612 226.731,274.338 226.562 C 274.059 226.389,273.985 226.452,274.151 226.721 C 274.302 226.965,274.690 227.064,275.013 226.940 C 275.439 226.776,275.600 227.009,275.600 227.792 C 275.600 228.846,277.811 232.400,278.468 232.400 C 278.651 232.400,278.800 232.672,278.800 233.004 C 278.800 233.336,279.340 234.172,280.000 234.863 C 280.660 235.554,281.200 236.362,281.200 236.659 C 281.200 236.957,281.380 237.200,281.600 237.200 C 281.820 237.200,282.000 237.644,282.000 238.186 C 282.000 238.762,282.332 239.350,282.800 239.600 C 283.240 239.835,283.600 240.292,283.600 240.614 C 283.600 240.936,283.780 241.200,284.000 241.200 C 284.220 241.200,284.400 241.560,284.400 242.000 C 284.400 242.440,284.580 242.800,284.800 242.800 C 285.020 242.800,285.200 243.064,285.200 243.386 C 285.200 243.708,285.521 244.143,285.912 244.353 C 286.304 244.563,286.878 245.379,287.187 246.167 C 287.496 246.955,287.896 247.600,288.075 247.600 C 288.254 247.600,288.400 247.848,288.400 248.152 C 288.400 248.455,289.120 249.445,290.000 250.352 C 290.880 251.259,291.600 252.269,291.600 252.597 C 291.600 252.925,291.960 253.418,292.400 253.693 C 292.840 253.968,293.200 254.509,293.200 254.896 C 293.200 255.283,293.380 255.600,293.600 255.600 C 293.820 255.600,294.000 255.864,294.000 256.186 C 294.000 256.508,294.360 256.965,294.800 257.200 C 295.240 257.435,295.600 257.852,295.600 258.126 C 295.600 258.399,295.960 258.883,296.400 259.200 C 296.840 259.517,297.200 260.024,297.200 260.327 C 297.200 261.209,298.820 263.235,299.292 262.943 C 299.537 262.792,299.609 262.862,299.458 263.106 C 299.312 263.342,299.464 263.807,299.796 264.139 C 300.128 264.471,300.400 264.946,300.400 265.195 C 300.400 265.444,300.608 265.519,300.862 265.362 C 301.116 265.205,301.216 265.250,301.085 265.463 C 300.760 265.988,302.174 268.085,302.594 267.703 C 302.778 267.536,302.808 267.610,302.660 267.868 C 302.513 268.125,302.629 268.575,302.919 268.868 C 303.208 269.160,303.564 269.715,303.710 270.100 C 303.856 270.485,304.251 270.800,304.587 270.800 C 304.976 270.800,305.200 271.170,305.200 271.813 C 305.200 272.409,305.487 272.934,305.900 273.090 C 306.990 273.503,307.600 274.263,307.600 275.209 C 307.600 275.738,307.911 276.156,308.400 276.284 C 308.840 276.399,309.200 276.742,309.200 277.047 C 309.200 277.351,309.410 277.600,309.667 277.600 C 309.923 277.600,310.020 277.714,309.881 277.853 C 309.533 278.200,310.326 279.600,310.870 279.600 C 311.335 279.600,312.366 280.771,312.387 281.324 C 312.394 281.502,312.192 281.519,311.938 281.362 C 311.652 281.185,311.585 281.252,311.762 281.538 C 311.919 281.792,312.307 282.000,312.624 282.000 C 312.941 282.000,313.200 282.294,313.200 282.653 C 313.200 283.012,313.527 283.597,313.928 283.953 C 314.328 284.309,314.772 284.915,314.915 285.300 C 315.058 285.685,315.451 286.000,315.787 286.000 C 316.124 286.000,316.423 286.180,316.450 286.400 C 316.546 287.165,316.631 287.405,317.128 288.300 C 317.403 288.795,317.815 289.200,318.043 289.200 C 318.602 289.200,319.600 290.231,319.600 290.810 C 319.600 291.629,321.245 293.620,321.692 293.343 C 321.946 293.186,322.008 293.263,321.843 293.530 C 321.683 293.790,322.341 294.762,323.381 295.802 C 324.382 296.803,325.200 297.795,325.200 298.007 C 325.200 298.219,325.740 298.909,326.400 299.540 C 327.060 300.171,327.600 300.802,327.600 300.943 C 327.600 301.084,314.007 301.200,297.393 301.200 L 267.186 301.200 265.842 299.816 C 265.103 299.055,264.392 298.155,264.262 297.816 C 264.131 297.477,263.749 297.200,263.413 297.200 C 263.076 297.200,262.800 297.009,262.800 296.776 C 262.800 296.543,263.025 296.467,263.300 296.607 C 263.575 296.747,263.431 296.532,262.981 296.130 C 262.530 295.729,262.040 295.085,261.893 294.700 C 261.746 294.315,261.349 294.000,261.013 294.000 C 260.676 294.000,260.400 293.730,260.400 293.400 C 260.400 293.070,260.220 292.800,260.000 292.800 C 259.780 292.800,259.600 292.446,259.600 292.014 C 259.600 291.582,259.240 291.035,258.800 290.800 C 258.360 290.565,258.000 290.108,258.000 289.786 C 258.000 289.464,257.841 289.200,257.647 289.200 C 257.452 289.200,257.199 288.840,257.084 288.400 C 256.969 287.960,256.588 287.600,256.237 287.600 C 255.844 287.600,255.599 287.256,255.598 286.700 C 255.597 286.205,255.092 285.260,254.476 284.600 C 253.860 283.940,253.237 283.085,253.091 282.700 C 252.945 282.315,252.594 281.998,252.313 281.996 C 252.031 281.994,251.498 281.274,251.130 280.396 C 250.751 279.494,250.185 278.800,249.830 278.800 C 249.419 278.800,249.200 278.440,249.200 277.763 C 249.200 277.062,248.941 276.657,248.400 276.516 C 247.960 276.401,247.594 276.013,247.587 275.653 C 247.570 274.765,246.598 273.543,246.196 273.906 C 246.018 274.068,245.987 273.998,246.128 273.750 C 246.270 273.503,245.938 272.819,245.393 272.230 C 244.847 271.641,244.400 270.898,244.400 270.579 C 244.400 270.261,244.250 270.000,244.068 270.000 C 243.885 270.000,243.481 269.505,243.170 268.900 C 242.860 268.295,242.289 267.509,241.903 267.153 C 241.516 266.797,241.200 266.252,241.200 265.941 C 241.200 265.631,240.840 265.117,240.400 264.800 C 239.960 264.483,239.600 263.943,239.600 263.600 C 239.600 263.257,239.240 262.717,238.800 262.400 C 238.360 262.083,238.000 261.586,238.000 261.295 C 238.000 261.004,237.669 260.411,237.264 259.977 C 236.859 259.542,236.278 258.695,235.972 258.093 C 235.667 257.492,234.918 256.374,234.308 255.609 C 233.699 254.844,233.200 253.933,233.200 253.584 C 233.200 253.236,232.840 252.564,232.400 252.092 C 231.960 251.620,231.600 251.046,231.600 250.817 C 231.600 250.588,231.409 250.400,231.176 250.400 C 230.943 250.400,230.852 250.239,230.974 250.042 C 231.096 249.845,230.908 249.573,230.556 249.439 C 230.171 249.291,230.014 248.941,230.161 248.559 C 230.317 248.152,229.901 247.421,229.002 246.522 C 227.650 245.170,227.093 244.039,228.079 244.649 C 228.790 245.088,226.751 242.286,225.916 241.677 C 225.127 241.101,224.913 240.175,225.679 240.649 C 225.942 240.811,225.791 240.417,225.344 239.772 C 224.896 239.128,224.417 238.285,224.278 237.900 C 224.139 237.515,223.749 237.200,223.413 237.200 C 223.076 237.200,222.800 237.009,222.800 236.776 C 222.800 236.543,222.993 236.472,223.230 236.618 C 223.612 236.855,222.903 235.302,222.399 234.800 C 222.289 234.690,221.944 234.105,221.632 233.500 C 221.320 232.895,220.915 232.400,220.732 232.400 C 220.550 232.400,220.400 232.122,220.400 231.783 C 220.400 231.444,220.040 230.780,219.600 230.308 C 219.160 229.836,218.800 229.213,218.800 228.925 C 218.800 228.636,218.620 228.400,218.400 228.400 C 218.180 228.400,218.000 228.068,218.000 227.661 C 218.000 226.650,217.003 224.736,215.800 223.437 C 215.250 222.844,214.800 222.098,214.800 221.779 C 214.800 221.461,214.620 221.200,214.400 221.200 C 214.180 221.200,214.000 220.840,214.000 220.400 C 214.000 219.960,213.820 219.600,213.600 219.600 C 213.380 219.600,213.200 219.328,213.200 218.995 C 213.200 218.662,213.039 218.077,212.842 217.695 C 212.645 217.313,211.898 215.785,211.182 214.300 C 210.466 212.815,209.727 211.600,209.540 211.600 C 209.353 211.600,209.200 211.240,209.200 210.800 C 209.200 210.360,209.020 210.000,208.800 210.000 C 208.580 210.000,208.400 209.640,208.400 209.200 C 208.400 208.760,208.220 208.400,208.000 208.400 C 207.780 208.400,207.600 208.155,207.600 207.855 C 207.600 207.556,206.880 205.911,206.000 204.200 C 204.168 200.638,204.103 200.153,205.200 198.200 C 205.640 197.417,206.000 196.588,206.000 196.359 C 206.000 196.130,206.272 195.671,206.604 195.339 C 206.936 195.007,207.088 194.542,206.942 194.306 C 206.785 194.051,206.864 193.993,207.138 194.162 C 207.408 194.328,207.600 194.201,207.600 193.857 C 207.600 193.532,207.735 193.207,207.900 193.133 C 208.065 193.060,208.809 191.830,209.554 190.400 C 210.299 188.970,211.325 187.004,211.835 186.031 C 212.344 185.057,212.651 184.067,212.517 183.831 C 212.382 183.594,212.418 183.532,212.596 183.694 C 212.987 184.048,214.000 182.215,214.000 181.154 C 214.000 180.739,214.180 180.400,214.400 180.400 C 214.620 180.400,214.800 180.040,214.800 179.600 C 214.800 179.160,214.980 178.800,215.200 178.800 C 215.420 178.800,215.600 178.440,215.600 178.000 C 215.600 177.560,215.780 177.200,216.000 177.200 C 216.220 177.200,216.400 176.987,216.400 176.726 C 216.400 176.465,216.744 175.880,217.165 175.426 C 217.586 174.972,217.991 174.240,218.065 173.800 C 218.139 173.360,218.515 172.765,218.900 172.477 C 219.630 171.932,219.899 170.968,219.200 171.400 C 218.980 171.536,218.800 171.457,218.800 171.224 C 218.800 170.991,219.057 170.800,219.371 170.800 C 219.685 170.800,220.211 170.260,220.540 169.600 C 220.869 168.940,220.972 168.400,220.769 168.400 C 220.069 168.400,220.402 167.693,221.200 167.484 C 221.741 167.343,222.000 166.938,222.000 166.237 C 222.000 165.667,222.180 165.200,222.400 165.200 C 222.620 165.200,222.800 164.849,222.800 164.420 C 222.800 163.991,223.077 163.485,223.415 163.296 C 223.753 163.106,224.636 161.748,225.376 160.276 C 226.116 158.805,226.559 157.701,226.361 157.824 C 225.580 158.307,226.054 157.258,226.900 156.630 C 227.395 156.263,227.575 156.072,227.300 156.205 C 227.025 156.338,226.800 156.251,226.800 156.011 C 226.800 155.771,227.066 155.473,227.390 155.348 C 228.025 155.105,229.200 153.021,229.200 152.139 C 229.200 151.842,229.380 151.600,229.600 151.600 C 229.820 151.600,230.000 151.276,230.000 150.880 C 230.000 150.138,230.715 149.200,231.280 149.200 C 231.456 149.200,231.600 149.436,231.600 149.725 " stroke="none" fill="#fbfbfb" fill-rule="evenodd"></path></g></svg>